<svg xmlns="http://www.w3.org/2000/svg" viewBox="0 0 15.71 6.89"><defs><style>.cls-1{fill:#1d1d1b;}</style></defs><title>me</title><g id="Layer_2" data-name="Layer 2"><g id="Layer_1-2" data-name="Layer 1"><path class="cls-1" d="M9,2.76v3.4a.65.65,0,0,1-.16.42.55.55,0,0,1-.42.19A.49.49,0,0,1,8,6.58a.6.6,0,0,1-.16-.42V2.8A2.3,2.3,0,0,0,7.75,2a1.1,1.1,0,0,0-.38-.53,1.48,1.48,0,0,0-1.5,0,1.81,1.81,0,0,0-.6.57A1.36,1.36,0,0,0,5,2.8V6.16a.58.58,0,0,1-1,.42.65.65,0,0,1-.16-.42V2.76A2.74,2.74,0,0,0,3.78,2a1.1,1.1,0,0,0-.37-.52A1.42,1.42,0,0,0,2,1.47,1.83,1.83,0,0,0,1.37,2a1.36,1.36,0,0,0-.21.74v3.4A.63.63,0,0,1,1,6.59a.57.57,0,0,1-.83,0A.63.63,0,0,1,0,6.16V.78A.59.59,0,0,1,.17.36.57.57,0,0,1,1,.36a.65.65,0,0,1,.16.42v0h0A2.87,2.87,0,0,1,1.94.28,2.35,2.35,0,0,1,2.85.09,2.14,2.14,0,0,1,4.19.53a1.83,1.83,0,0,1,.51.62A2.62,2.62,0,0,1,5,.85,2.94,2.94,0,0,1,5.84.3a2.43,2.43,0,0,1,1-.21A2.07,2.07,0,0,1,8.1.46a2.05,2.05,0,0,1,.72,1A3.93,3.93,0,0,1,9,2.76Z"/><path class="cls-1" d="M14.62,5a2.5,2.5,0,0,1-.36.37,1.62,1.62,0,0,1-.5.28,1.71,1.71,0,0,1-.62.11,1.9,1.9,0,0,1-1.81-1.11,2.49,2.49,0,0,1-.23-.91h4a.54.54,0,0,0,.39-.17.58.58,0,0,0,.18-.43,3.43,3.43,0,0,0-.26-1.33,3.15,3.15,0,0,0-.64-1A2.58,2.58,0,0,0,13.9.2a2.66,2.66,0,0,0-2.46.22,3.13,3.13,0,0,0-1.07,1.2A3.87,3.87,0,0,0,10,3.48a3.74,3.74,0,0,0,.41,1.78,3,3,0,0,0,1.13,1.2,3.11,3.11,0,0,0,1.66.43,2.6,2.6,0,0,0,1.31-.35,3.27,3.27,0,0,0,.92-.78.59.59,0,0,0,0-.83A.51.51,0,0,0,14.62,5ZM11.25,2.41a2.07,2.07,0,0,1,.42-.7,1.42,1.42,0,0,1,.56-.39,1.58,1.58,0,0,1,1.38.06,1.74,1.74,0,0,1,.62.53,1.31,1.31,0,0,1,.27.64H11.2A1.21,1.21,0,0,0,11.25,2.41Z"/></g></g></svg>