<svg xmlns="http://www.w3.org/2000/svg" viewBox="0 0 326.14 222.03"><title>photography icons</title><g id="Layer_2" data-name="Layer 2"><g id="choose_wisely" data-name="choose wisely"><path d="M247.86,55.6l1,0,.59.4a1.42,1.42,0,0,0,.78.23h.84a.59.59,0,0,0,.58-.38l.08-.25h.64a.61.61,0,0,0,.58-.34l.18-.4h3.65a.16.16,0,0,0,.17-.13,91.62,91.62,0,0,0,1.22-11.19c.37-6.6.32-14.27.31-15.4s.06-8.81-.31-15.4A91.94,91.94,0,0,0,257,1.5a.17.17,0,0,0-.17-.13h-3.65L253,1a.63.63,0,0,0-.58-.34h-.64l-.08-.25a.6.6,0,0,0-.58-.38h-.84a1.42,1.42,0,0,0-.78.23l-.59.4-1,0c.3,4.09,1,14.87,1,27.24C248.9,40.78,248.14,52,247.86,55.6Z"/><path d="M187.1,4.62a1,1,0,0,0-.25.08,8.27,8.27,0,0,1-1.8.51c-1.07.19-4.92.4-5.83.45a.88.88,0,0,0-.36.1,5.35,5.35,0,0,0-1.08.72.93.93,0,0,0-.13.15c-.13,3.57-.48,13.92-.48,21.47,0,7.37.33,17.58.47,21.46.05,0,.09.11.14.15a5.35,5.35,0,0,0,1.08.72.75.75,0,0,0,.36.1c.91,0,4.76.27,5.83.45a8.15,8.15,0,0,1,1.8.52.84.84,0,0,0,.24.07c-.19-4-.67-15.33-.67-23.47C186.42,19.75,186.93,8.24,187.1,4.62Z"/><path d="M177.23,7.27l-.13.23a1.51,1.51,0,0,0-.79,1c-.22.74-.9,6.28-.9,6.28l-2.34.1a.48.48,0,0,0-.28.17,3.28,3.28,0,0,0-.44,1.25c0,.22,0,.66,0,.66s-.83,0-.88,4c0,2.6-.18,6-.21,7h0v.29h0c0,1,.13,4.36.21,7,.11,3.53.8,3.53.8,3.53l.15.91a.23.23,0,0,1-.16.1l-.85.06.06,1.15a.26.26,0,0,0,.24.23l.84.1a.43.43,0,0,1,.33.26c.1.3.33.8.74.8.58,0,.72-.91.72-.91l1.2,0s.59,5.46.81,6.19a1.51,1.51,0,0,0,.79,1,2.08,2.08,0,0,0,.12.22c-.15-4.28-.45-13.82-.45-20.81S177.08,11.33,177.23,7.27Z"/><path d="M231.92,56.12l12.6,0a2,2,0,0,0,.84-.18l.24-.11h.18c.26-3.39,1.05-14.71,1.05-27.84,0-12.52-.71-23.4-1-27.31h-.22l-.24-.11a2,2,0,0,0-.84-.18l-12.6,0Z"/><path d="M225.13.26h-6.21a3.46,3.46,0,0,0-1.5.32l-6.35,1.65a3.51,3.51,0,0,0-2.26,1.72l-.39.76-6.49,0-.59-1a1.39,1.39,0,0,0-1.19-.61h-6.93a1.4,1.4,0,0,0-1.14.56l-.69,1H188.9c-.17,3.56-.68,15.11-.68,23.47,0,8.16.49,19.55.67,23.47h.4l19.13.06.39.76a3.53,3.53,0,0,0,2.26,1.71l6.35,1.65a3.46,3.46,0,0,0,1.5.33l6.21,0Zm-27,11.05c0-.68,1.09-1.23,2.43-1.23s2.44.55,2.44,1.23-1.09,1.23-2.44,1.23S198.09,12,198.09,11.31Zm5.85,6.42V38.46a1.84,1.84,0,0,1-2,1.69V16A1.84,1.84,0,0,1,203.94,17.73Zm-8.05,21V18a1.84,1.84,0,0,1,2-1.69V40.38A1.84,1.84,0,0,1,195.89,38.69Z"/><path d="M7.1,158.38c-.68,0-1.1.85-1.47,1.11-.56.38-.89.38-.89.34a.74.74,0,0,0-.81-.8c-.89,0-.82,1.07-.82,1.07H1.34A55.91,55.91,0,0,0,0,173v20.59A56,56,0,0,0,1.34,206.4H3.11s-.07,1,.82,1.07a.74.74,0,0,0,.81-.81s.33,0,.89.35c.37.26.79,1.1,1.47,1.11h10c.42,0,.39-.34.79-.38v-49c-.4,0-.37-.36-.79-.37Z"/><path d="M54.46,159.4c-14.71,0-14.21-.68-16-.68l-9.85,0a.77.77,0,0,1-.53-.19V208a.77.77,0,0,1,.53-.19l9.85,0c1.79,0,1.29-.68,16-.68,0,.13.32.29.75.37V159C54.78,159.11,54.47,159.27,54.46,159.4Z"/><path d="M138,169s-.12-.83-.78-.8-.24.82-.7.8H135.4l-.93-4.6a.19.19,0,0,0-.29-.09c-.28.18-.72.43-.8.32-1.16-1.63-3.55-.48-6.18-2.85-1.13,0-6.18.06-6.18.06a.79.79,0,0,0-.27-.58.44.44,0,0,0-.25-.08c-3-.17-3.43-1.31-5.9-1.26-22.08.51-21.83-.47-23.1-.47l-27.75,0a.44.44,0,0,1-.35-.15v48.06a.44.44,0,0,1,.35-.15l27.75,0c1,0,1.06-.57,10.78-.62a5,5,0,0,0-.93,2.61,9.85,9.85,0,0,0,.85,3.29c-2.11,3.07-3.28,1.79-29.82,2.21a.43.43,0,0,0-.35.19,17,17,0,0,0-1.1,3.2h34.95v2.16h-34a2.21,2.21,0,0,0-.48.55s-.06,1,.09,1.12l38.33.22c.18-.09.24-.15.24-.25s3.8-5.62,4.8-15.16c2.24,0,2.71-1.09,5.64-1.25a.53.53,0,0,0,.25-.08.8.8,0,0,0,.27-.59s5,.08,6.18.06c2.63-2.37,5-1.21,6.18-2.85.08-.11.52.15.8.33a.19.19,0,0,0,.29-.09l.93-4.61h1.13c.46,0,0,.78.7.8s.78-.8.78-.8a27.19,27.19,0,0,0,.64-7.13V176.08A27.29,27.29,0,0,0,138,169Zm-56.34-1.52a1.42,1.42,0,0,1,1.55-1.24h1.51a1.42,1.42,0,0,1,1.55,1.24v3.08a1.42,1.42,0,0,1-1.55,1.24H83.22a1.42,1.42,0,0,1-1.55-1.24Zm0,11.5a1.42,1.42,0,0,1,1.55-1.24h1.51a1.42,1.42,0,0,1,1.55,1.24v4.66a1.42,1.42,0,0,1-1.55,1.24H83.22a1.42,1.42,0,0,1-1.55-1.24Zm0,8.19a1.43,1.43,0,0,1,1.55-1.24h1.51a1.42,1.42,0,0,1,1.55,1.24v4.61A1.42,1.42,0,0,1,84.73,193H83.22a1.42,1.42,0,0,1-1.55-1.24Zm5.08,11.15a1.42,1.42,0,0,1-1.55,1.24H82.56A1.43,1.43,0,0,1,81,198.27v-3.08A1.42,1.42,0,0,1,82.56,194H85.2a1.42,1.42,0,0,1,1.55,1.24Z"/><path d="M241,170.82l-3.27-.56v-.57A.7.7,0,0,0,237,169h-3.5a.71.71,0,0,0-.68.46l-1.46-.23v-.59a.35.35,0,0,0-.36-.33h-1.88a.35.35,0,0,0-.36.33v.2l-3.93-.57V168a.35.35,0,0,0-.36-.33h-1.89a.36.36,0,0,0-.34.22l-3.86-.53v-.23a.35.35,0,0,0-.36-.34h-1.89a.37.37,0,0,0-.34.23l-.56-.07c-8.66-.93-6.42-10.23-14.63-10-.33,0,0-1.25-.41-1.25-5.17-.08-9.24-.1-14.13,0-.22,0-.53,1.25-.61,1.25-7.06,0-7.5,9.19-10.43,9.43-.85-2-12.81,0-14.87,1.65a29,29,0,0,0,.52,4.46s-3.51,2.42-4.36,14.41c-.83,11.66-2.07,35.15,6.51,35.15h80.28c4.12,0,6.16.08,6.16-3.14v-36S250,172.44,241,170.82ZM188.89,172a.77.77,0,0,1,.49-.17h7.34a.56.56,0,0,1,.45.2,5.56,5.56,0,0,1,0,6.73.66.66,0,0,1-.51.24H189.4a.64.64,0,0,1-.47-.21,5.17,5.17,0,0,1-1.06-3.56C187.87,173.18,188.52,172.32,188.89,172Zm-17.72,4.13a2.48,2.48,0,1,1-2.66,2.47A2.57,2.57,0,0,1,171.17,176.12ZM162.46,195a2.27,2.27,0,1,1,2.44-2.26A2.35,2.35,0,0,1,162.46,195Zm1.61-13.17a2.17,2.17,0,1,1,2.33-2.17A2.25,2.25,0,0,1,164.07,181.79Zm45.05,33a2,2,0,0,1-2.11,2H170a2,2,0,0,1-2.11-2V189.66a2,2,0,0,1,2.11-2H207a2,2,0,0,1,2.11,2Zm21.3-41.68a1.65,1.65,0,1,1-1.77,1.64A1.72,1.72,0,0,1,230.42,173.09Zm-11.76,12.69a2.82,2.82,0,1,1-3,2.82A2.92,2.92,0,0,1,218.66,185.78Zm5.88,29.3c-5.64,0-10.21-4.24-10.21-9.47s4.57-9.47,10.21-9.47,10.21,4.24,10.21,9.47S230.18,215.08,224.54,215.08Zm12.58-37.33a2.1,2.1,0,1,1,2.25-2.09A2.18,2.18,0,0,1,237.12,177.75Zm5.73,1.31a1.72,1.72,0,1,1,1.85-1.72A1.79,1.79,0,0,1,242.85,179.06Z"/><ellipse cx="224.54" cy="205.61" rx="4.35" ry="4.13"/><path d="M115.6,23.35a10.79,10.79,0,1,0,11,10.78A10.87,10.87,0,0,0,115.6,23.35ZM108,40a8,8,0,0,1-2.25-5.88A8,8,0,0,1,108,28.26Z"/><path d="M153.55,14.57h-.4V8l-.61-.59V5.52L151.21,4.2h-2.15L149,.83a.27.27,0,0,0-.27-.27L138,.52a.51.51,0,0,0-.51.47l-.1,1.44h-11A1.51,1.51,0,0,0,124.87.92h-9.45a1.29,1.29,0,0,0-.86.32l-.79.7H99.51L99.23.59,99.16.45A.85.85,0,0,0,98.41,0H81.54a.66.66,0,0,0-.65.52l-.12.61H75.41a.58.58,0,0,0-.55.4l-.24.78V4.52H71.54a.81.81,0,0,0-.48.16L70.63,5a.94.94,0,0,0-.37.74V7.19l-.55.63.55,42.11a.33.33,0,0,0,.11.25l.07.07a.69.69,0,0,0,.31.18l4.09,1.11.14,0h73.3a.51.51,0,0,0,.17,0l4.19-1.2a.18.18,0,0,0,.13-.17V48.6l.92-.44a1.58,1.58,0,0,0,.92-1.43V15.61A1.06,1.06,0,0,0,153.55,14.57ZM103.3,8.21a1.12,1.12,0,0,1,1.13-1.11h3.25a1.12,1.12,0,0,1,1.13,1.11v2a1.13,1.13,0,0,1-1.13,1.12h-3.25a1.13,1.13,0,0,1-1.13-1.12Zm-3.42,6.12a.74.74,0,0,1-.74.73H82.62a.73.73,0,0,1-.73-.73V7.1a.73.73,0,0,1,.73-.73H99.14a.74.74,0,0,1,.74.73ZM115.6,48.69a14.56,14.56,0,1,1,14.78-14.56A14.67,14.67,0,0,1,115.6,48.69ZM137.51,13a.48.48,0,0,1-.48.47H123.78a.47.47,0,0,1-.47-.47V5.46a.47.47,0,0,1,.47-.47H137a.48.48,0,0,1,.48.47Z"/><path d="M217,139.26l8-.57a1.29,1.29,0,0,0,1.24-1.24h0v-.12l6.86.12a.71.71,0,0,0,.73-.68V122.15a.6.6,0,0,0-.62-.58h-6.26V93.67l-1.46-1s.69.37.68-5.73c0-5.89-.49-5.65-.49-5.65l-.75,0v-.92h.41a.2.2,0,0,0,.21-.2V75.57a.21.21,0,0,0-.22-.2h-.4l-.07-1.45a.36.36,0,0,0-.34-.32l-.74,0a.2.2,0,0,0-.18-.2l-.61-.08s0-1.47,0-3.61c0-.05-.32-.13-.31-.45.18-.22.37-.16.37-.43,0-2.6.06-5.28-.07-5.57a.56.56,0,0,0-.47-.37c0-.25-.21-.58-.49-.58l-4.63-.08c0-.47.21-3.27-2.08-3.27s-2.14,2.57-2.09,3.19c-9.69-.16-24.9-.39-32.52-.39-.55,0-2.19,0-2.44.35a10.27,10.27,0,0,0-1.09,4.72c-.32,8.78,0,26.92,0,39.18,0,16.38,0,25,.07,29.41.1,3.66,1.41,3.68,1.41,3.68l34.07.2c0,.87.12,2.95,2.1,2.95S217,140.13,217,139.26Zm-2.89-78.33a1.26,1.26,0,1,1,1.26,1.17A1.21,1.21,0,0,1,214.06,60.93ZM225.68,111v9.6h-9.32V111ZM211.3,86.4a1.1,1.1,0,1,1,1.1,1A1.06,1.06,0,0,1,211.3,86.4Zm-32.91,19.24c0-9.39,8.18-17,18.27-17s18.27,7.62,18.27,17-8.18,17-18.27,17S178.39,115,178.39,105.64Zm49,29.7v-10.9h4.23v10.9Zm-13.8,4.88a1.14,1.14,0,0,1,.52-.94h1.47a1.17,1.17,0,0,1,.52.94,1.26,1.26,0,0,1-2.51,0Z"/><ellipse cx="221.02" cy="115.84" rx="2.94" ry="2.73"/><ellipse cx="196.37" cy="105.91" rx="10.21" ry="9.5"/><path d="M37.7,109.41c4.92-.11,8.81-.35,11.68-.61a2,2,0,0,0-.25-.68l-.35-3.46-.27-.69H49a.4.4,0,0,0,.38-.41V97.84a.47.47,0,0,0-.46-.5h-.56v-1s.07-.06.15-.38c-2.77-.23-6.79-.44-12.13-.44-6.33,0-11.71.3-15.25.57a.61.61,0,0,0,.12.25l-.44,8.27-.35,3.46a2.69,2.69,0,0,0-.32,1C23.83,109.34,30.13,109.58,37.7,109.41Zm-9-6.41V97.63H40.9V103Z"/><path d="M48.5,93.56l0,0a.71.71,0,0,1-.13-.43l0-.76a.72.72,0,0,0-.48-.81l0-1.09a1,1,0,0,0-.29-.7l-.26-.31a.85.85,0,0,1-.2-.56l0-3.54a94,94,0,0,0-12.37-.57,93.25,93.25,0,0,0-12.42.57l.05,3.54a.85.85,0,0,1-.2.56l-.26.31a1,1,0,0,0-.3.7l0,1.09a.72.72,0,0,0-.48.81l0,.76a.64.64,0,0,1-.12.43.34.34,0,0,0-.08.16c3.61-.27,9-.56,15.35-.56C41.61,93.14,45.64,93.34,48.5,93.56Z"/><path d="M47.21,85.08l.69-.61h1.37A1.77,1.77,0,0,0,51,82.73l.1-2.36a7.79,7.79,0,0,0,3.19-1.88c3.67-3.8,2.61-13.44,1.8-18-.05-.26-.31-1.53-1.35-1.72a85.77,85.77,0,0,0-10.48-.51V54a.7.7,0,0,0-.57-.71,11.24,11.24,0,0,0-1.92-.12c-.75,0-3.28.51-6,.56-2.28,0-4.79-.49-6.8-.56a17.86,17.86,0,0,0-3,.13,1.06,1.06,0,0,0-.89,1.07v4.45l-1.82,1.73H11.58L10,59.71H2.31A2.36,2.36,0,0,0,0,62.12V77.54a16.84,16.84,0,0,0,3.36,9,12.74,12.74,0,0,0,8.88,4.12c2.86.24,3.53-7.71,3.63-9.22a.26.26,0,0,1,.26-.25l4.43,0,1.21,3.66.58.28a93.32,93.32,0,0,1,12.46-.58A94.88,94.88,0,0,1,47.21,85.08ZM4,71.8V62.54H22.88V71.8Zm41.54-4.59a5,5,0,1,1,5,5.2A5.08,5.08,0,0,1,45.56,67.21ZM5.24,74.37a.61.61,0,1,1,1.21,0,.61.61,0,1,1-1.21,0Zm3.58,0a1,1,0,1,1,1,1A1,1,0,0,1,8.82,74.37Zm4.74,0a1,1,0,1,1,1,1A1,1,0,0,1,13.56,74.37Zm5,0a1,1,0,1,1,2,0,1,1,0,1,1-2,0ZM9,83.52c1.1.38,1.79,1.34,1.53,2.14s-1.34,1.15-2.44.77-1.79-1.34-1.54-2.14S7.89,83.15,9,83.52Z"/><path d="M49.46,117.21a3.9,3.9,0,0,0-.29-1.86v-.91a1.38,1.38,0,0,0,.16-.42c-2.91.25-6.74.48-11.53.58-7.46.17-13.62,0-17.45-.25a.32.32,0,0,0,0,.09v.91a4.06,4.06,0,0,0-.29,2c1.71.25,5.88.63,15.39.63C43.74,117.93,47.64,117.54,49.46,117.21Z"/><path d="M44.91,141.3c1.78-1,3.54-11.63,4.8-11.88.71-.14,2.25,4.44,3,4s-.42-7.93-1.06-11.52c-.16-.88-1.14-1-1.28-1.05l-1.57-.35a.51.51,0,0,1-.1-.61c.24-.41.59-.37.72-2,0-.13,0-.26,0-.38-1.9.35-5.84.73-14,.73-9.46,0-13.62-.37-15.39-.62,0,.08,0,.18,0,.27.13,1.65.48,1.61.71,2a.49.49,0,0,1-.09.61l-1.57.35c-.14,0-1.12.17-1.28,1.05-.64,3.59-1.72,11.12-1.06,11.52s2.31-4.11,3-4c1.26.25,3,10.91,4.8,11.88C26.9,142.53,42.66,142.53,44.91,141.3Z"/><path d="M325.55,20.37c-2.51-2.72-9.11-2.77-14.37-3.8a54,54,0,0,0-12.76-1.08l-10.68-2.66.05-4,.14-.06a.93.93,0,0,0,.47-.8l.23-2H290l.07.53,1.72-.08c.49,0,.89-.63.91-1.38l.11-4.75-16.57,0-.16,5.08.44,1.06H278l1,10.19-.69,2.57h-2c-.23,0-.41.28-.41.62v2.83c0,.33.13.63.35.67a3.17,3.17,0,0,1,1.42.71,16.08,16.08,0,0,1,1.49,1.49V30.3l-1.74,1.52a5,5,0,0,0-4.47,2,7.14,7.14,0,0,0-.77,6.57l-2.21,9.45.46.81-16.29,64.46-2.9.81-1.7,7.85a2.52,2.52,0,0,0,0,1.06l.19.87-1.76,7.85a1.15,1.15,0,0,0,.18.92l.28.33a.81.81,0,0,0,.35.27l1.53.63s-.5,2.38-.75,4a2,2,0,0,0,1.56,1.9c2.38.26,2.93-1.34,2.93-1.34l1-3.33.43.15c.44.14.89-.23,1-.89l1.2-5.22a.56.56,0,0,0-.21-.62l-.35-.15a.48.48,0,0,1-.23-.43v-.36a.63.63,0,0,1,.25-.59l.52-.3,1.48-5.91,2.32-3,16.11-6.88a2.45,2.45,0,0,0,2.88,2.61c3.59-.19,3-2.3,3-2.3l15,6.53,2.5,3.8.49,4,.64.69s1.19,7.71,2.1,12.61a2.06,2.06,0,0,0,2.27,1.61c.57-.13,1.83-.26,1.87-1.37a46.74,46.74,0,0,0-.15-4.73,14.35,14.35,0,0,0,1.66-.51,2,2,0,0,0,.7-2c-.22-2.18-.85-6.46-1-7.2a.37.37,0,0,1,0-.21l.09-.29a1.79,1.79,0,0,0,.08-.83l-.24-1.92.12-.3a1,1,0,0,0,0-.48s-.56-5-1-5.86-2.82-.56-2.82-.56l-11.2-65.13a2.48,2.48,0,0,0,.28-1.78L293.37,41a7.15,7.15,0,0,0,1-1.7c.3-.84-.27-1.94-.64-3.69-.5-2.33-.9-5.3-.9-5.3l-.47-.31-2.61.08-.09,2.42-1.1-.23c-.79-.15-1.45-2-1.45-2l0-2.95a2.13,2.13,0,0,0-.63-1.82l-.23-.3.1-.61A2.27,2.27,0,0,0,287.58,23a31.72,31.72,0,0,0,.15-5.43l10.44,2.82a51.49,51.49,0,0,0,12.4,5.85c5.1,1.54,10.73,4.53,13.54,4C325.79,29.89,326.88,21.82,325.55,20.37ZM278.12,92a4.48,4.48,0,0,1-.64,1.12.85.85,0,0,1-.42.19.86.86,0,0,0-.49.9s-.12,4.32.58,4.36c.4,0,.65-.94.65-.94l.19,0-.16,1.92a1.77,1.77,0,0,0-.83.75,27.87,27.87,0,0,0-.09,3.88l.62.83,0,.76s-1.89.74-2.28.91-.81,1-.81,1l-13.69,5.14,14.84-59.64h.33c.37,0,.69-.35.81-.88l1.83-8h.06c.15,0,.27.18.27.41a16,16,0,0,0,.17,2.5.56.56,0,0,0,.38.4Zm8.28-44.62a20.82,20.82,0,0,0,.12-2.78c0-.19.1-.35.23-.35h.06s1.49,7.28,1.7,8.32.9,1,.9,1l10.23,59.44-12.51-5.39-.93-.81a16.87,16.87,0,0,0-1.73-1s.07-2.42,0-3a2.15,2.15,0,0,0-.45-1l1.69-54A.69.69,0,0,0,286.4,47.41Z"/><path d="M144.12,141.46l.89-.05.53.52a1,1,0,0,0,.69.29H147a.56.56,0,0,0,.51-.49l.07-.32h.57a.59.59,0,0,0,.52-.44l.16-.52h3.24c.08,0,.14-.07.15-.17.13-1,.77-6.17,1.09-14.46.33-8.52.28-18.43.28-19.89s.05-11.37-.28-19.89c-.32-8.3-1-13.5-1.09-14.47a.16.16,0,0,0-.15-.16h-3.24l-.16-.52a.57.57,0,0,0-.52-.44h-.57l-.07-.32a.57.57,0,0,0-.51-.5h-.75a1,1,0,0,0-.69.3l-.53.52-.85,0c.27,5.29.88,19.21.88,35.2C145,122.31,144.37,136.77,144.12,141.46Z"/><path d="M83.83,75.6a.67.67,0,0,0-.23.1,5.66,5.66,0,0,1-1.59.67c-1,.24-4.38.51-5.19.58a.59.59,0,0,0-.32.13,4.66,4.66,0,0,0-1,.93,1.08,1.08,0,0,0-.11.18c-.12,4.62-.44,18-.44,27.74,0,9.52.3,22.71.43,27.72l.12.2a4.66,4.66,0,0,0,1,.93.59.59,0,0,0,.32.13c.81.06,4.23.34,5.19.58a5.66,5.66,0,0,1,1.59.67l.21.1c-.16-5.15-.59-19.81-.59-30.33C83.22,95.14,83.67,80.28,83.83,75.6Z"/><path d="M142.31,70.31h-.2l-.21-.14a1.37,1.37,0,0,0-.74-.23l-29-.13a2.37,2.37,0,0,0-1.34.43l-5.63,2.13a3.53,3.53,0,0,0-2,2.21l-.35,1-5.77,0-.53-1.24a1.19,1.19,0,0,0-1-.78H89.26a1.13,1.13,0,0,0-1,.72l-.62,1.34H85.78l-.35,0c-.15,4.59-.61,19.52-.61,30.32,0,10.53.43,25.25.59,30.31h.37l17,.08.35,1a3.55,3.55,0,0,0,2,2.21l5.63,2.13a2.37,2.37,0,0,0,1.34.43l29.05-.13a1.37,1.37,0,0,0,.74-.23l.21-.14h.17c.23-4.37.93-19,.93-36C143.21,89.41,142.57,75.36,142.31,70.31ZM93.6,84.1c0-.88,1-1.59,2.16-1.59s2.16.71,2.16,1.59-1,1.59-2.16,1.59S93.6,85,93.6,84.1ZM98,121.65H93.39a2,2,0,0,1-1.75-2.18V92.68a2,2,0,0,1,1.75-2.18H98a2,2,0,0,1,1.75,2.18v26.79A2,2,0,0,1,98,121.65Z"/><path d="M75.05,79c-.07.18-.11.31-.11.31s-.48.24-.7,1.33-.81,8.1-.81,8.1l-2.08.14a.37.37,0,0,0-.25.22,5.93,5.93,0,0,0-.39,1.61c0,.28,0,.85,0,.85s-.74.06-.78,5.19c0,3.35-.16,7.69-.19,9h0v.37h0c0,1.29.12,5.63.19,9,.1,4.57.71,4.57.71,4.57l.13,1.16a.16.16,0,0,1-.14.13l-.76.09.06,1.48a.29.29,0,0,0,.21.3l.75.13a.41.41,0,0,1,.29.34c.09.38.29,1,.66,1s.64-1.19.64-1.19l1.06.08s.53,7,.73,8,.7,1.33.7,1.33l.1.28c-.13-5.52-.4-17.85-.4-26.88C74.64,96.71,74.92,84.27,75.05,79Z"/><path d="M0,8.27v6.48l.19.73s-.3,7.69.11,9.43h55c.4-1.74.11-9.43.11-9.43l.19-.73V8.27l0-.16H0Zm3.15,3.45c0-.78.44-1.41,1-1.41h1c.54,0,1,.63,1,1.41v9c0,.78-.44,1.41-1,1.41h-1c-.54,0-1-.63-1-1.41Z"/><path d="M1.61,26.18c0,.27.16.49.35.5l3.76.25,0,1.39c0,.46.26.83.58.86l1.12.1.17,3.43c0,.27.16.48.35.49l2.77.14,0,1.32a.64.64,0,0,0,.35.62l.54.19,0,3.2,16.06.4h.11l16.06-.4,0-3.2.54-.19a.65.65,0,0,0,.35-.62l0-1.32L49,33.2c.23,0,.42-.27.44-.6v-.14a.57.57,0,0,0-.34-.6l-1-.2,0-2.38,1.68-.16.06-2.19L54,26.66,54,26H1.61Z"/><path d="M55.42,6.78a22.71,22.71,0,0,0-.25-4.48C54.66.61,50.4.87,50.4.87a1.46,1.46,0,0,0-.89-.62C48.94.14,29.5,0,27.86,0h-.11C26.11,0,6.66.14,6.1.25a1.5,1.5,0,0,0-.9.62S1,.61.44,2.3A21.94,21.94,0,0,0,.19,6.78L.16,7H55.45Z"/><path d="M269.88,174.8v29.1a.63.63,0,0,0,.06.27h56.15a.81.81,0,0,0,.05-.27V175.22c-6-.38-20-1.21-28.29-1.21S276.07,174.54,269.88,174.8Z"/><path d="M269.88,216.05a2,2,0,0,0,2,2.07v1.16l.89.15a.45.45,0,0,1,.35.41l.07,1.68a.5.5,0,0,0,.49.51h48.65a.5.5,0,0,0,.49-.51l.07-1.68a.44.44,0,0,1,.35-.41l.89-.15,0-1.16a2,2,0,0,0,2-2.07v-4.64H269.88Z"/><path d="M269.91,171.86l0,.09v1c6.23-.26,19.78-.79,28-.79s22.21.82,28.29,1.21v-1.42c-3.61-.28-20.52-1.54-28.28-1.54C290.62,170.39,275,171.49,269.91,171.86Z"/><path d="M326,171.45a12.68,12.68,0,0,1-.5-2.28c0-1.34-.31-7.69-.42-10.23a1.27,1.27,0,0,0-1.06-1.22l-3.65-.57a.36.36,0,0,1-.29-.25l-.06-.18a.7.7,0,0,0-.45-.48l-.78-.29v-1.24a6.44,6.44,0,0,0-.11-1.45c-.12-.43-.26-.39-.57-.49a19.89,19.89,0,0,0-3-.48,3.83,3.83,0,0,0-.11-.44c-.06-.13-.61-.29-.61-.29l-.24-2.2a30.28,30.28,0,0,0-6.89-.7c-3.26,0-7-.11-8.53-.16v0h-1.32v0c-1.5.05-5.27.16-8.54.16a30.18,30.18,0,0,0-6.89.7l-.25,2.2s-.54.16-.6.29a2.44,2.44,0,0,0-.11.44l-3.16.35s-1.75,0-1.73,1a1.17,1.17,0,0,0,1.16,1.12V156l-.78.29a.74.74,0,0,0-.45.48l-.05.18a.36.36,0,0,1-.29.25l-3.65.57a1.27,1.27,0,0,0-1.06,1.22c-.11,2.54-.38,8.89-.43,10.23a10.88,10.88,0,0,1-.48,2.21c5.27-.38,20.64-1.46,27.81-1.46C305.51,169.92,322,171.15,326,171.45ZM322.56,162a1,1,0,0,1,1-1h0a1,1,0,0,1,1,1v7.13a1,1,0,0,1-1,1h0a1,1,0,0,1-1-1Zm-8.51-.66a1.66,1.66,0,0,1,1.63-1.69h.11a1.66,1.66,0,0,1,1.63,1.69v6.37a1.66,1.66,0,0,1-1.63,1.69h-.11a1.66,1.66,0,0,1-1.63-1.69Z"/></g></g></svg>