<?xml version="1.0" encoding="utf-8"?>
<!-- Generator: Adobe Illustrator 23.0.2, SVG Export Plug-In . SVG Version: 6.00 Build 0)  -->
<svg version="1.1" id="Layer_1" xmlns="http://www.w3.org/2000/svg" xmlns:xlink="http://www.w3.org/1999/xlink" x="0px" y="0px"
	 viewBox="0 0 326.1 222" style="enable-background:new 0 0 326.1 222;" xml:space="preserve">
<style type="text/css">
	.st0{fill-rule:evenodd;clip-rule:evenodd;}
</style>
<title>photography icons</title>
<g>
	<g id="choose_wisely_1_">
		<path d="M-122.9,55.6h1l0.6,0.4c0.2,0.2,0.5,0.2,0.8,0.2h0.8c0.3,0,0.5-0.1,0.6-0.4l0.1-0.3h0.6c0.2,0,0.5-0.1,0.6-0.3l0.2-0.4
			h3.7c0.1,0,0.2,0,0.2-0.1c0.6-3.7,1-7.4,1.2-11.2c0.4-6.6,0.3-14.3,0.3-15.4s0.1-8.8-0.3-15.4c-0.2-3.8-0.5-7.5-1.2-11.2
			c0-0.1-0.1-0.1-0.2-0.1h-3.6l-0.2-0.4c-0.1-0.2-0.3-0.3-0.6-0.3h-0.6l-0.1-0.3c-0.1-0.2-0.3-0.4-0.6-0.4h-0.8
			c-0.3,0-0.5,0.1-0.8,0.2l-0.6,0.4h-1c0.3,4.1,1,14.9,1,27.2C-121.8,40.8-122.6,52-122.9,55.6z"/>
		<path d="M-183.6,4.6c-0.1,0-0.2,0-0.3,0.1c-0.6,0.2-1.2,0.4-1.8,0.5c-1.1,0.2-4.9,0.4-5.8,0.4c-0.1,0-0.2,0-0.4,0.1
			c-0.4,0.2-0.8,0.4-1.1,0.7c0,0-0.1,0.1-0.1,0.2c-0.1,3.6-0.5,13.9-0.5,21.5c0,7.4,0.3,17.6,0.5,21.5c0.1,0,0.1,0.1,0.1,0.2
			c0.3,0.3,0.7,0.5,1.1,0.7c0.1,0.1,0.2,0.1,0.4,0.1c0.9,0,4.8,0.3,5.8,0.5c0.6,0.1,1.2,0.3,1.8,0.5c0.1,0,0.2,0.1,0.2,0.1
			c-0.2-4-0.7-15.3-0.7-23.5C-184.3,19.7-183.8,8.2-183.6,4.6z"/>
		<path d="M-193.5,7.3l-0.1,0.2c-0.4,0.2-0.7,0.6-0.8,1c-0.2,0.7-0.9,6.3-0.9,6.3l-2.3,0.1c-0.1,0-0.2,0.1-0.3,0.2
			c-0.2,0.4-0.4,0.8-0.4,1.2c0,0.2,0,0.7,0,0.7s-0.8,0-0.9,4c0,2.6-0.2,6-0.2,7l0,0v0.3l0,0c0,1,0.1,4.4,0.2,7
			c0.1,3.5,0.8,3.5,0.8,3.5l0.1,0.9c0,0.1-0.1,0.1-0.2,0.1l-0.9,0.1l0.1,1.2c0,0.1,0.1,0.2,0.2,0.2l0.8,0.1c0.1,0,0.3,0.1,0.3,0.3
			c0.1,0.3,0.3,0.8,0.7,0.8c0.6,0,0.7-0.9,0.7-0.9h1.2c0,0,0.6,5.5,0.8,6.2c0.1,0.4,0.4,0.8,0.8,1c0,0.1,0.1,0.1,0.1,0.2
			c-0.1-4.3-0.4-13.8-0.4-20.8S-193.6,11.3-193.5,7.3z"/>
		<path d="M-138.8,56.1h12.6c0.3,0,0.6-0.1,0.8-0.2l0.2-0.1h0.2c0.3-3.4,1.1-14.7,1.1-27.8c0-12.5-0.7-23.4-1-27.3h-0.2l-0.2-0.1
			c-0.3-0.1-0.6-0.2-0.8-0.2h-12.6L-138.8,56.1z"/>
		<path d="M-145.6,0.3h-6.2c-0.5,0-1,0.1-1.5,0.3l-6.4,1.7c-1,0.2-1.8,0.9-2.3,1.7l-0.4,0.8h-6.5l-0.6-1c-0.3-0.4-0.7-0.6-1.2-0.6
			h-6.9c-0.4,0-0.9,0.2-1.1,0.6l-0.7,1h-2.5c-0.2,3.6-0.7,15.1-0.7,23.5c0,8.2,0.5,19.6,0.7,23.5h0.4l19.1,0.1l0.4,0.8
			c0.5,0.9,1.3,1.5,2.3,1.7l6.4,1.7c0.5,0.2,1,0.3,1.5,0.3h6.2V0.3z M-172.6,11.3c0-0.7,1.1-1.2,2.4-1.2s2.4,0.6,2.4,1.2
			s-1.1,1.2-2.4,1.2S-172.6,12-172.6,11.3L-172.6,11.3z M-166.7,17.7v20.7c-0.1,1-1,1.8-2,1.7c0,0,0,0,0,0V16
			C-167.7,15.9-166.9,16.7-166.7,17.7C-166.8,17.7-166.8,17.7-166.7,17.7L-166.7,17.7z M-174.8,38.7V18c0.1-1,1-1.8,2-1.7
			c0,0,0,0,0,0v24.1C-173.8,40.5-174.7,39.8-174.8,38.7C-174.8,38.7-174.8,38.7-174.8,38.7L-174.8,38.7z"/>
		<path d="M-363.6,158.4c-0.7,0-1.1,0.9-1.5,1.1c-0.6,0.4-0.9,0.4-0.9,0.3c0-0.4-0.3-0.8-0.7-0.8c0,0-0.1,0-0.1,0
			c-0.9,0-0.8,1.1-0.8,1.1h-1.8c-0.9,4.2-1.4,8.6-1.3,12.9v20.6c0,4.3,0.4,8.6,1.3,12.8h1.8c0,0-0.1,1,0.8,1.1
			c0.4,0,0.8-0.3,0.8-0.7c0,0,0-0.1,0-0.1c0,0,0.3,0,0.9,0.4c0.4,0.3,0.8,1.1,1.5,1.1h10c0.4,0,0.4-0.3,0.8-0.4v-49
			c-0.4,0-0.4-0.4-0.8-0.4L-363.6,158.4z"/>
		<path d="M-316.3,159.4c-14.7,0-14.2-0.7-16-0.7h-9.9c-0.2,0-0.4-0.1-0.5-0.2V208c0.1-0.1,0.3-0.2,0.5-0.2h9.9
			c1.8,0,1.3-0.7,16-0.7c0,0.1,0.3,0.3,0.8,0.4V159C-315.9,159.1-316.3,159.3-316.3,159.4z"/>
		<path d="M-232.7,169c0,0-0.1-0.8-0.8-0.8s-0.2,0.8-0.7,0.8h-1.1l-0.9-4.6c0-0.1-0.1-0.2-0.2-0.1c0,0,0,0,0,0
			c-0.3,0.2-0.7,0.4-0.8,0.3c-1.2-1.6-3.6-0.5-6.2-2.9c-1.1,0-6.2,0.1-6.2,0.1c0-0.2-0.1-0.4-0.3-0.6c-0.1-0.1-0.2-0.1-0.3-0.1
			c-3-0.2-3.4-1.3-5.9-1.3c-22.1,0.5-21.8-0.5-23.1-0.5H-307c-0.1,0-0.3,0-0.4-0.1v48.1c0.1-0.1,0.2-0.2,0.4-0.1h27.8
			c1,0,1.1-0.6,10.8-0.6c-0.5,0.8-0.9,1.7-0.9,2.6c0.1,1.1,0.4,2.3,0.9,3.3c-2.1,3.1-3.3,1.8-29.8,2.2c-0.1,0-0.3,0.1-0.3,0.2
			c-0.5,1-0.8,2.1-1.1,3.2h34.9v2.2h-34c-0.2,0.2-0.4,0.3-0.5,0.6c0,0-0.1,1,0.1,1.1l38.3,0.2c0.2-0.1,0.2-0.1,0.2-0.3
			s3.8-5.6,4.8-15.2c2.2,0,2.7-1.1,5.6-1.3c0.1,0,0.2,0,0.3-0.1c0.2-0.1,0.3-0.4,0.3-0.6c0,0,5,0.1,6.2,0.1c2.6-2.4,5-1.2,6.2-2.9
			c0.1-0.1,0.5,0.1,0.8,0.3c0.1,0.1,0.2,0,0.3,0c0,0,0,0,0,0l0.9-4.6h1.1c0.5,0,0,0.8,0.7,0.8s0.8-0.8,0.8-0.8
			c0.5-2.3,0.7-4.7,0.6-7.1v-14.4C-232,173.7-232.2,171.3-232.7,169z M-289.1,167.5c0.1-0.8,0.8-1.3,1.6-1.2h1.5
			c0.8-0.1,1.5,0.5,1.5,1.2v3.1c-0.1,0.8-0.8,1.3-1.5,1.2h-1.5c-0.8,0.1-1.5-0.5-1.5-1.2L-289.1,167.5z M-289.1,179
			c0.1-0.8,0.8-1.3,1.6-1.2h1.5c0.8-0.1,1.5,0.5,1.5,1.2v4.7c-0.1,0.8-0.8,1.3-1.5,1.2h-1.5c-0.8,0.1-1.5-0.5-1.5-1.2L-289.1,179z
			 M-289.1,187.2c0.1-0.8,0.8-1.3,1.6-1.2h1.5c0.8-0.1,1.5,0.5,1.5,1.2v4.6c-0.1,0.8-0.8,1.3-1.5,1.2h-1.5c-0.8,0.1-1.5-0.5-1.5-1.2
			L-289.1,187.2z M-284,198.3c-0.1,0.8-0.8,1.3-1.6,1.2h-2.6c-0.8,0.1-1.5-0.5-1.6-1.3c0,0,0,0,0,0v-3.1c0.1-0.7,0.8-1.3,1.6-1.2
			h2.6c0.8-0.1,1.5,0.5,1.5,1.2L-284,198.3z"/>
		<path d="M-129.7,170.8l-3.3-0.6v-0.6c0-0.4-0.3-0.7-0.7-0.7c0,0,0,0,0,0h-3.5c-0.3,0-0.6,0.2-0.7,0.5l-1.5-0.2v-0.6
			c0-0.2-0.2-0.3-0.4-0.3h-1.9c-0.2,0-0.3,0.1-0.4,0.3v0.2l-3.9-0.6V168c0-0.2-0.2-0.3-0.4-0.3h-1.9c-0.1,0-0.3,0.1-0.3,0.2
			l-3.9-0.5v-0.2c0-0.2-0.2-0.3-0.4-0.3c0,0,0,0,0,0h-1.9c-0.1,0-0.3,0.1-0.3,0.2l-0.6-0.1c-8.7-0.9-6.4-10.2-14.6-10
			c-0.3,0,0-1.3-0.4-1.3c-5.2-0.1-9.2-0.1-14.1,0c-0.2,0-0.5,1.3-0.6,1.3c-7.1,0-7.5,9.2-10.4,9.4c-0.9-2-12.8,0-14.9,1.6
			c0.1,1.5,0.2,3,0.5,4.5c0,0-3.5,2.4-4.4,14.4c-0.8,11.7-2.1,35.2,6.5,35.2h80.3c4.1,0,6.2,0.1,6.2-3.1v-36
			C-121.5,182.9-120.7,172.4-129.7,170.8z M-181.8,172c0.1-0.1,0.3-0.2,0.5-0.2h7.3c0.2,0,0.3,0.1,0.4,0.2c1.5,2,1.5,4.7,0,6.7
			c-0.1,0.2-0.3,0.2-0.5,0.2h-7.3c-0.2,0-0.3-0.1-0.5-0.2c-0.8-1-1.2-2.3-1.1-3.6C-182.9,173.2-182.2,172.3-181.8,172z
			 M-199.6,176.1c1.4,0.1,2.4,1.3,2.3,2.7c-0.1,1.4-1.3,2.4-2.7,2.3c-1.3-0.1-2.3-1.2-2.3-2.5C-202.2,177.2-201,176.1-199.6,176.1
			C-199.6,176.1-199.6,176.1-199.6,176.1L-199.6,176.1z M-208.3,195c-1.3-0.1-2.2-1.2-2.1-2.4c0.1-1.3,1.2-2.2,2.4-2.1
			c1.2,0.1,2.1,1.1,2.1,2.3C-205.9,194-207,195-208.3,195C-208.3,195-208.3,195-208.3,195z M-206.7,181.8c-1.2-0.1-2.1-1.1-2-2.3
			c0.1-1.2,1.1-2.1,2.3-2c1.1,0.1,2,1,2,2.2C-204.4,180.9-205.4,181.8-206.7,181.8L-206.7,181.8z M-161.6,214.8c0,1.1-0.9,2-2,2
			c0,0-0.1,0-0.1,0h-37c-1.1,0.1-2-0.8-2.1-1.9c0,0,0-0.1,0-0.1v-25.2c0-1.1,0.9-2,2-2c0,0,0.1,0,0.1,0h37c1.1-0.1,2,0.8,2.1,1.9
			c0,0,0,0.1,0,0.1L-161.6,214.8z M-140.3,173.1c0.9,0.1,1.6,0.9,1.5,1.8s-0.9,1.6-1.8,1.5c-0.9-0.1-1.5-0.8-1.5-1.7
			C-142.1,173.8-141.3,173.1-140.3,173.1C-140.3,173.1-140.3,173.1-140.3,173.1L-140.3,173.1z M-152.1,185.8c1.6,0.1,2.7,1.4,2.6,3
			c-0.1,1.6-1.4,2.7-3,2.6c-1.5-0.1-2.6-1.3-2.6-2.8C-155,187-153.7,185.8-152.1,185.8C-152.1,185.8-152.1,185.8-152.1,185.8
			L-152.1,185.8z M-146.2,215.1c-5.6,0-10.2-4.2-10.2-9.5s4.6-9.5,10.2-9.5s10.2,4.2,10.2,9.5S-140.5,215.1-146.2,215.1
			L-146.2,215.1z M-133.6,177.8c-1.2-0.1-2-1.1-1.9-2.2c0.1-1.2,1.1-2,2.2-1.9c1.1,0.1,2,1,1.9,2.1
			C-131.4,176.9-132.4,177.8-133.6,177.8L-133.6,177.8z M-127.9,179.1c-0.9-0.1-1.7-0.9-1.6-1.8c0.1-0.9,0.9-1.7,1.8-1.6
			c0.9,0.1,1.6,0.8,1.6,1.7C-126.1,178.4-126.9,179.1-127.9,179.1L-127.9,179.1z"/>
		<ellipse cx="-146.2" cy="205.6" rx="4.4" ry="4.1"/>
		<path d="M-255.1,23.3c-6,0.1-10.7,5-10.6,11c0.1,6,5,10.7,11,10.6c5.9-0.1,10.6-4.9,10.6-10.8C-244.2,28.1-249.1,23.3-255.1,23.3
			C-255.1,23.3-255.1,23.3-255.1,23.3z M-262.7,40c-1.5-1.6-2.3-3.7-2.3-5.9c-0.1-2.2,0.7-4.3,2.3-5.9V40z"/>
		<path d="M-217.2,14.6h-0.4V8l-0.6-0.6V5.5l-1.3-1.3h-2.1l-0.1-3.4c0-0.1-0.1-0.3-0.3-0.3l0,0l-10.7,0c-0.3,0-0.5,0.2-0.5,0.5
			l-0.1,1.4h-11c0-0.8-0.7-1.5-1.5-1.5c0,0,0,0,0,0h-9.4c-0.3,0-0.6,0.1-0.9,0.3l-0.8,0.7h-14.3l-0.3-1.4l-0.1-0.1
			c-0.1-0.3-0.4-0.4-0.8-0.4h-16.9c-0.3,0-0.6,0.2-0.6,0.5l-0.1,0.6h-5.4c-0.3,0-0.5,0.2-0.5,0.4l-0.2,0.8v2.2h-3.1
			c-0.2,0-0.3,0.1-0.5,0.2l-0.4,0.3c-0.2,0.2-0.4,0.4-0.4,0.7v1.5l-0.6,0.6l0.6,42.1c0,0.1,0,0.2,0.1,0.3l0.1,0.1
			c0.1,0.1,0.2,0.1,0.3,0.2l4.1,1.1h0.1h73.3c0.1,0,0.1,0,0.2,0l4.2-1.2c0.1,0,0.1-0.1,0.1-0.2v-1.6l0.9-0.4
			c0.6-0.3,0.9-0.8,0.9-1.4V15.6C-216.1,15-216.6,14.6-217.2,14.6z M-267.4,8.2c0-0.6,0.5-1.1,1.1-1.1c0,0,0,0,0,0h3.3
			c0.6,0,1.1,0.5,1.1,1.1c0,0,0,0,0,0v2c0,0.6-0.5,1.1-1.1,1.1h-3.3c-0.6,0-1.1-0.5-1.1-1.1V8.2z M-270.8,14.3
			c0,0.4-0.3,0.7-0.7,0.7h-16.5c-0.4,0-0.7-0.3-0.7-0.7c0,0,0,0,0,0V7.1c0-0.4,0.3-0.7,0.7-0.7l0,0h16.5c0.4,0,0.7,0.3,0.7,0.7V14.3
			z M-255.1,48.7c-8-0.1-14.5-6.7-14.3-14.8c0.1-8,6.7-14.5,14.8-14.3c8,0.1,14.3,6.6,14.3,14.6C-240.4,42.2-247,48.8-255.1,48.7
			C-255.1,48.7-255.1,48.7-255.1,48.7z M-233.2,13c0,0.3-0.2,0.5-0.5,0.5h-13.3c-0.3,0-0.5-0.2-0.5-0.5c0,0,0,0,0,0V5.5
			c0-0.3,0.2-0.5,0.5-0.5l0,0h13.2c0.3,0,0.5,0.2,0.5,0.5L-233.2,13z"/>
		<path d="M-153.7,139.3l8-0.6c0.7,0,1.2-0.6,1.2-1.2l0,0v-0.1l6.9,0.1c0.4,0,0.7-0.3,0.7-0.7v-14.6c0-0.3-0.3-0.6-0.6-0.6
			c0,0,0,0,0,0h-6.3V93.7l-1.5-1c0,0,0.7,0.4,0.7-5.7c0-5.9-0.5-5.7-0.5-5.7h-0.8v-0.9h0.4c0.1,0,0.2-0.1,0.2-0.2c0,0,0,0,0,0v-4.6
			c0-0.1-0.1-0.2-0.2-0.2c0,0,0,0,0,0h-0.4l-0.1-1.4c0-0.2-0.2-0.3-0.3-0.3h-0.7c0-0.1-0.1-0.2-0.2-0.2l-0.6-0.1c0,0,0-1.5,0-3.6
			c0-0.1-0.3-0.1-0.3-0.4c0.2-0.2,0.4-0.2,0.4-0.4c0-2.6,0.1-5.3-0.1-5.6c-0.1-0.2-0.3-0.3-0.5-0.4c0-0.3-0.2-0.6-0.5-0.6l-4.6-0.1
			c0-0.5,0.2-3.3-2.1-3.3s-2.1,2.6-2.1,3.2c-9.7-0.2-24.9-0.4-32.5-0.4c-0.6,0-2.2,0-2.4,0.3c-0.7,1.5-1.1,3.1-1.1,4.7
			c-0.3,8.8,0,26.9,0,39.2c0,16.4,0,25,0.1,29.4c0.1,3.7,1.4,3.7,1.4,3.7l34.1,0.2c0,0.9,0.1,2.9,2.1,2.9S-153.7,140.1-153.7,139.3z
			 M-156.6,60.9c0-0.7,0.5-1.3,1.2-1.3c0.7,0,1.3,0.5,1.3,1.2c0,0.7-0.5,1.3-1.2,1.3c0,0-0.1,0-0.1,0
			C-156,62.2-156.6,61.7-156.6,60.9C-156.7,61-156.7,61-156.6,60.9L-156.6,60.9z M-145,111v9.6h-9.3V111H-145z M-159.4,86.4
			c-0.1-0.6,0.4-1.1,1-1.2s1.1,0.4,1.2,1s-0.4,1.1-1,1.2c0,0-0.1,0-0.1,0C-158.9,87.4-159.4,87-159.4,86.4z M-192.3,105.6
			c0-9.4,8.2-17,18.3-17s18.3,7.6,18.3,17s-8.2,17-18.3,17S-192.3,115-192.3,105.6z M-143.3,135.3v-10.9h4.2v10.9H-143.3z
			 M-157.1,140.2c0-0.4,0.2-0.7,0.5-0.9h1.5c0.3,0.2,0.5,0.6,0.5,0.9c-0.1,0.7-0.7,1.2-1.4,1.1
			C-156.6,141.3-157.1,140.8-157.1,140.2L-157.1,140.2z"/>
		<ellipse cx="-149.7" cy="115.8" rx="2.9" ry="2.7"/>
		<ellipse cx="-174.4" cy="105.9" rx="10.2" ry="9.5"/>
		<path d="M-333,109.4c4.9-0.1,8.8-0.3,11.7-0.6c0-0.2-0.1-0.5-0.3-0.7l-0.3-3.5l-0.3-0.7h0.5c0.2,0,0.4-0.2,0.4-0.4v-5.7
			c0-0.3-0.2-0.5-0.4-0.5c0,0,0,0,0,0h-0.6v-1c0,0,0.1-0.1,0.1-0.4c-2.8-0.2-6.8-0.4-12.1-0.4c-6.3,0-11.7,0.3-15.3,0.6
			c0,0.1,0.1,0.2,0.1,0.3l-0.4,8.3l-0.4,3.5c-0.2,0.3-0.3,0.6-0.3,1C-346.9,109.3-340.6,109.6-333,109.4z M-342,103v-5.4h12.2v5.4
			H-342z"/>
		<path d="M-322.2,93.6L-322.2,93.6c-0.1-0.1-0.1-0.3-0.1-0.4v-0.8c0.1-0.4-0.1-0.7-0.5-0.8v-1.1c0-0.3-0.1-0.5-0.3-0.7l-0.3-0.3
			c-0.1-0.2-0.2-0.4-0.2-0.6v-3.5c-4.1-0.5-8.2-0.7-12.4-0.6c-4.1-0.1-8.3,0.1-12.4,0.6l0.1,3.5c0,0.2-0.1,0.4-0.2,0.6l-0.3,0.3
			c-0.2,0.2-0.3,0.4-0.3,0.7v1.1c-0.3,0.1-0.5,0.5-0.5,0.8v0.8c0,0.2,0,0.3-0.1,0.4c0,0-0.1,0.1-0.1,0.2c3.6-0.3,9-0.6,15.3-0.6
			C-329.1,93.1-325.1,93.3-322.2,93.6z"/>
		<path d="M-323.5,85.1l0.7-0.6h1.4c1,0,1.7-0.8,1.7-1.7l0.1-2.4c1.2-0.4,2.3-1,3.2-1.9c3.7-3.8,2.6-13.4,1.8-18
			c0-0.3-0.3-1.5-1.3-1.7c-3.5-0.4-7-0.6-10.5-0.5V54c0-0.3-0.2-0.6-0.6-0.7c-0.6-0.1-1.3-0.1-1.9-0.1c-0.8,0-3.3,0.5-6,0.6
			c-2.3,0-4.8-0.5-6.8-0.6c-1,0-2,0-3,0.1c-0.5,0.1-0.9,0.5-0.9,1.1v4.5l-1.8,1.7h-11.7l-1.6-0.8h-7.7c-1.3,0-2.3,1.1-2.3,2.4
			c0,0,0,0,0,0v15.4c0.2,3.3,1.4,6.4,3.4,9c2.3,2.5,5.5,4,8.9,4.1c2.9,0.2,3.5-7.7,3.6-9.2c0-0.1,0.1-0.3,0.3-0.3h4.4l1.2,3.7
			l0.6,0.3c4.1-0.5,8.3-0.7,12.5-0.6C-331.8,84.5-327.6,84.6-323.5,85.1z M-366.7,71.8v-9.3h18.9v9.3H-366.7z M-325.2,67.2
			c0.1-2.8,2.4-4.9,5.2-4.8c2.8,0.1,4.9,2.4,4.8,5.2c-0.1,2.7-2.3,4.8-5,4.8C-323,72.4-325.2,70-325.2,67.2
			C-325.2,67.2-325.2,67.2-325.2,67.2L-325.2,67.2z M-365.5,74.4c0-0.3,0.2-0.6,0.5-0.7c0.3,0,0.6,0.2,0.7,0.5c0,0.1,0,0.1,0,0.2
			c0,0.3-0.2,0.6-0.5,0.7c-0.3,0-0.6-0.2-0.7-0.5C-365.5,74.5-365.5,74.4-365.5,74.4z M-361.9,74.4c0-0.6,0.4-1,1-1c0.6,0,1,0.4,1,1
			s-0.4,1-1,1C-361.5,75.4-361.9,74.9-361.9,74.4z M-357.2,74.4c0-0.6,0.4-1,1-1c0.6,0,1,0.4,1,1s-0.4,1-1,1
			C-356.7,75.4-357.2,74.9-357.2,74.4z M-352.2,74.4c0-0.6,0.4-1,1-1c0.6,0,1,0.4,1,1s-0.4,1-1,1C-351.7,75.4-352.2,74.9-352.2,74.4
			z M-361.7,83.5c1.1,0.4,1.8,1.3,1.5,2.1c-0.3,0.8-1.3,1.2-2.4,0.8c-1.1-0.4-1.8-1.3-1.5-2.1S-362.8,83.1-361.7,83.5z"/>
		<path d="M-321.3,117.2c0.1-0.6,0-1.3-0.3-1.9v-0.9c0.1-0.1,0.1-0.3,0.2-0.4c-2.9,0.3-6.7,0.5-11.5,0.6c-7.5,0.2-13.6,0-17.5-0.3
			c0,0,0,0.1,0,0.1v0.9c-0.3,0.6-0.4,1.3-0.3,2c1.7,0.3,5.9,0.6,15.4,0.6C-327,117.9-323.1,117.5-321.3,117.2z"/>
		<path d="M-325.8,141.3c1.8-1,3.5-11.6,4.8-11.9c0.7-0.1,2.3,4.4,3,4s-0.4-7.9-1.1-11.5c-0.2-0.9-1.1-1-1.3-1.1l-1.6-0.3
			c-0.2-0.2-0.2-0.4-0.1-0.6c0.2-0.4,0.6-0.4,0.7-2c0-0.1,0-0.3,0-0.4c-1.9,0.3-5.8,0.7-14,0.7c-9.5,0-13.6-0.4-15.4-0.6
			c0,0.1,0,0.2,0,0.3c0.1,1.7,0.5,1.6,0.7,2c0.1,0.2,0.1,0.5-0.1,0.6l-1.6,0.3c-0.1,0-1.1,0.2-1.3,1.1c-0.6,3.6-1.7,11.1-1.1,11.5
			s2.3-4.1,3-4c1.3,0.3,3,10.9,4.8,11.9C-343.8,142.5-328.1,142.5-325.8,141.3z"/>
		<path d="M-45.2,20.4c-2.5-2.7-9.1-2.8-14.4-3.8c-4.2-0.9-8.5-1.2-12.8-1.1L-83,12.8l0-4l0.1-0.1c0.3-0.2,0.5-0.5,0.5-0.8l0.2-2
			h1.4l0.1,0.5l1.7-0.1c0.5,0,0.9-0.6,0.9-1.4l0.1-4.8h-16.6l-0.2,5.1l0.4,1.1h1.5l1,10.2l-0.7,2.6h-2c-0.2,0-0.4,0.3-0.4,0.6v2.8
			c0,0.3,0.1,0.6,0.4,0.7c0.5,0.1,1,0.4,1.4,0.7c0.5,0.5,1,1,1.5,1.5v4.8l-1.7,1.5c-1.7-0.2-3.4,0.6-4.5,2c-1.3,1.9-1.6,4.4-0.8,6.6
			l-2.2,9.5l0.5,0.8l-16.3,64.5l-2.9,0.8l-1.7,7.8c-0.1,0.3-0.1,0.7,0,1.1l0.2,0.9l-1.8,7.9c-0.1,0.3,0,0.7,0.2,0.9l0.3,0.3
			c0.1,0.1,0.2,0.2,0.4,0.3l1.5,0.6c0,0-0.5,2.4-0.8,4c0,0.9,0.7,1.7,1.6,1.9c2.4,0.3,2.9-1.3,2.9-1.3l1-3.3l0.4,0.1
			c0.4,0.1,0.9-0.2,1-0.9l1.2-5.2c0.1-0.2,0-0.5-0.2-0.6l-0.4-0.1c-0.1-0.1-0.2-0.3-0.2-0.4v-0.4c0-0.2,0.1-0.5,0.3-0.6l0.5-0.3
			l1.5-5.9l2.3-3l16.1-6.9c-0.1,1.3,0.9,2.5,2.2,2.6c0.2,0,0.4,0,0.6,0c3.6-0.2,3-2.3,3-2.3l15,6.5l2.5,3.8l0.5,4l0.6,0.7
			c0,0,1.2,7.7,2.1,12.6c0.2,1,1.2,1.7,2.3,1.6c0.6-0.1,1.8-0.3,1.9-1.4c0-1.6,0-3.2-0.1-4.7c0.6-0.1,1.1-0.3,1.7-0.5
			c0.6-0.5,0.9-1.3,0.7-2c-0.2-2.2-0.9-6.5-1-7.2c0-0.1,0-0.1,0-0.2l0.1-0.3c0.1-0.3,0.1-0.6,0.1-0.8l-0.2-1.9l0.1-0.3
			c0-0.2,0-0.3,0-0.5c0,0-0.6-5-1-5.9S-65,116-65,116l-11.2-65.1c0.3-0.5,0.4-1.2,0.3-1.8l-1.5-8.1c0.4-0.5,0.7-1.1,1-1.7
			c0.3-0.8-0.3-1.9-0.6-3.7c-0.5-2.3-0.9-5.3-0.9-5.3l-0.5-0.3l-2.6,0.1l-0.1,2.4l-1.1-0.2c-0.8-0.2-1.5-2-1.5-2v-3
			c0.1-0.7-0.1-1.3-0.6-1.8l-0.2-0.3l0.1-0.6c0.6-0.3,1.1-0.9,1.2-1.6c0.2-1.8,0.3-3.6,0.1-5.4l10.4,2.8c3.9,2.5,8,4.5,12.4,5.9
			c5.1,1.5,10.7,4.5,13.5,4C-44.9,29.9-43.8,21.8-45.2,20.4z M-92.6,92c-0.2,0.4-0.4,0.8-0.6,1.1c-0.1,0.1-0.3,0.2-0.4,0.2
			c-0.3,0.2-0.5,0.5-0.5,0.9c0,0-0.1,4.3,0.6,4.4c0.4,0,0.6-0.9,0.6-0.9h0.2l-0.2,1.9c-0.4,0.2-0.6,0.4-0.8,0.8
			c-0.1,1.3-0.2,2.6-0.1,3.9l0.6,0.8v0.8c0,0-1.9,0.7-2.3,0.9s-0.8,1-0.8,1l-13.7,5.1l14.8-59.6h0.3c0.4,0,0.7-0.3,0.8-0.9l1.8-8
			h0.1c0.1,0,0.3,0.2,0.3,0.4c0,0.8,0,1.7,0.2,2.5c0,0.2,0.2,0.3,0.4,0.4L-92.6,92z M-84.3,47.4c0.1-0.9,0.1-1.9,0.1-2.8
			c0-0.2,0.1-0.3,0.2-0.3h0.1c0,0,1.5,7.3,1.7,8.3s0.9,1,0.9,1l10.2,59.4l-12.5-5.4l-0.9-0.8c-0.6-0.4-1.1-0.7-1.7-1
			c0,0,0.1-2.4,0-3c-0.1-0.4-0.2-0.7-0.5-1l1.7-54C-84.7,47.8-84.4,47.7-84.3,47.4L-84.3,47.4z"/>
		<path d="M-226.6,141.5l0.9-0.1l0.5,0.5c0.2,0.2,0.4,0.3,0.7,0.3h0.8c0.3,0,0.5-0.2,0.5-0.5l0.1-0.3h0.6c0.2,0,0.5-0.2,0.5-0.4
			l0.2-0.5h3.2c0.1,0,0.1-0.1,0.1-0.2c0.1-1,0.8-6.2,1.1-14.5c0.3-8.5,0.3-18.4,0.3-19.9s0.1-11.4-0.3-19.9
			c-0.3-8.3-1-13.5-1.1-14.5c0-0.1-0.1-0.2-0.1-0.2h-3.2l-0.2-0.5c-0.1-0.2-0.3-0.4-0.5-0.4h-0.6l-0.1-0.3c0-0.3-0.2-0.5-0.5-0.5
			h-0.8c-0.3,0-0.5,0.1-0.7,0.3l-0.5,0.5h-0.9c0.3,5.3,0.9,19.2,0.9,35.2C-225.7,122.3-226.4,136.8-226.6,141.5z"/>
		<path d="M-286.9,75.6c-0.1,0-0.2,0.1-0.2,0.1c-0.5,0.3-1,0.5-1.6,0.7c-1,0.2-4.4,0.5-5.2,0.6c-0.1,0-0.2,0.1-0.3,0.1
			c-0.4,0.3-0.7,0.6-1,0.9c0,0.1-0.1,0.1-0.1,0.2c-0.1,4.6-0.4,18-0.4,27.7c0,9.5,0.3,22.7,0.4,27.7l0.1,0.2c0.3,0.4,0.6,0.7,1,0.9
			c0.1,0.1,0.2,0.1,0.3,0.1c0.8,0.1,4.2,0.3,5.2,0.6c0.6,0.1,1.1,0.4,1.6,0.7l0.2,0.1c-0.2-5.1-0.6-19.8-0.6-30.3
			C-287.5,95.1-287.1,80.3-286.9,75.6z"/>
		<path d="M-228.4,70.3h-0.2l-0.2-0.1c-0.2-0.1-0.5-0.2-0.7-0.2l-29-0.1c-0.5,0-0.9,0.2-1.3,0.4l-5.6,2.1c-1,0.4-1.7,1.2-2,2.2
			l-0.4,1h-5.8l-0.5-1.2c-0.2-0.4-0.5-0.7-1-0.8h-6.3c-0.4,0-0.8,0.3-1,0.7l-0.6,1.3h-1.9h-0.3c-0.2,4.6-0.6,19.5-0.6,30.3
			c0,10.5,0.4,25.3,0.6,30.3h0.4l17,0.1l0.4,1c0.3,1,1,1.8,2,2.2l5.6,2.1c0.4,0.3,0.9,0.4,1.3,0.4l29.1-0.1c0.3,0,0.5-0.1,0.7-0.2
			l0.2-0.1h0.2c0.2-4.4,0.9-19,0.9-36C-227.5,89.4-228.2,75.4-228.4,70.3z M-277.1,84.1c0-0.9,1-1.6,2.2-1.6s2.2,0.7,2.2,1.6
			s-1,1.6-2.2,1.6S-277.1,85-277.1,84.1z M-272.7,121.6h-4.6c-1.1-0.1-1.9-1.1-1.8-2.2V92.7c-0.1-1.1,0.7-2,1.8-2.2h4.6
			c1.1,0.1,1.9,1.1,1.8,2.2v26.8C-270.9,120.6-271.6,121.5-272.7,121.6z"/>
		<path d="M-295.7,79c-0.1,0.2-0.1,0.3-0.1,0.3s-0.5,0.2-0.7,1.3s-0.8,8.1-0.8,8.1l-2.1,0.1c-0.1,0-0.2,0.1-0.3,0.2
			c-0.2,0.5-0.3,1.1-0.4,1.6c0,0.3,0,0.8,0,0.8s-0.7,0.1-0.8,5.2c0,3.3-0.2,7.7-0.2,9l0,0v0.4l0,0c0,1.3,0.1,5.6,0.2,9
			c0.1,4.6,0.7,4.6,0.7,4.6l0.1,1.2c0,0.1-0.1,0.1-0.1,0.1l-0.8,0.1l0.1,1.5c0,0.1,0.1,0.3,0.2,0.3l0.8,0.1c0.2,0,0.3,0.2,0.3,0.3
			c0.1,0.4,0.3,1,0.7,1c0.4,0,0.6-1.2,0.6-1.2l1.1,0.1c0,0,0.5,7,0.7,8s0.7,1.3,0.7,1.3l0.1,0.3c-0.1-5.5-0.4-17.9-0.4-26.9
			C-296.1,96.7-295.8,84.3-295.7,79z"/>
		<path d="M-370.7,8.3v6.5l0.2,0.7c0,0-0.3,7.7,0.1,9.4h55c0.4-1.7,0.1-9.4,0.1-9.4l0.2-0.7V8.3V8.1h-55.6V8.3z M-367.6,11.7
			c0-0.8,0.4-1.4,1-1.4h1c0.5,0,1,0.6,1,1.4v9c0,0.8-0.4,1.4-1,1.4h-1c-0.5,0-1-0.6-1-1.4V11.7z"/>
		<path d="M-369.1,26.2c0,0.3,0.2,0.5,0.4,0.5l3.8,0.3v1.4c0,0.5,0.3,0.8,0.6,0.9l1.1,0.1l0.2,3.4c0,0.3,0.2,0.5,0.3,0.5l2.8,0.1
			v1.3c0,0.3,0.1,0.5,0.4,0.6l0.5,0.2v3.2l16.1,0.4h0.1l16.1-0.4v-3.2l0.5-0.2c0.2-0.1,0.4-0.4,0.3-0.6v-1.3l4.3-0.1
			c0.2,0,0.4-0.3,0.4-0.6v-0.1c0-0.3-0.1-0.5-0.3-0.6l-1-0.2v-2.4l1.7-0.2l0.1-2.2l4.2-0.3V26h-52.4V26.2z"/>
		<path d="M-315.3,6.8c0.1-1.5,0-3-0.3-4.5c-0.5-1.7-4.8-1.4-4.8-1.4c-0.2-0.3-0.5-0.5-0.9-0.6c-0.6-0.1-20-0.3-21.6-0.3h-0.1
			c-1.6,0-21.1,0.1-21.6,0.3c-0.4,0.1-0.7,0.3-0.9,0.6c0,0-4.2-0.3-4.8,1.4c-0.2,1.5-0.3,3-0.3,4.5l0,0.2h55.3L-315.3,6.8z"/>
		<path d="M-100.8,174.8v29.1c0,0.1,0,0.2,0.1,0.3h56.1c0-0.1,0-0.2,0-0.3v-28.7c-6-0.4-20-1.2-28.3-1.2S-94.7,174.5-100.8,174.8z"
			/>
		<path d="M-100.8,216.1c0,1.1,0.8,2,1.9,2.1c0,0,0,0,0.1,0v1.2l0.9,0.1c0.2,0,0.3,0.2,0.4,0.4l0.1,1.7c0,0.3,0.2,0.5,0.5,0.5
			c0,0,0,0,0,0h48.6c0.3,0,0.5-0.2,0.5-0.5c0,0,0,0,0,0l0.1-1.7c0-0.2,0.2-0.4,0.4-0.4l0.9-0.1v-1.2c1.1,0,2-0.9,2-2c0,0,0,0,0-0.1
			v-4.6h-56.3V216.1z"/>
		<path d="M-100.8,171.9L-100.8,171.9v1.1c6.2-0.3,19.8-0.8,28-0.8s22.2,0.8,28.3,1.2V172c-3.6-0.3-20.5-1.5-28.3-1.5
			C-80.1,170.4-95.7,171.5-100.8,171.9z"/>
		<path d="M-44.7,171.4c-0.2-0.7-0.4-1.5-0.5-2.3c0-1.3-0.3-7.7-0.4-10.2c0-0.6-0.5-1.1-1.1-1.2l-3.6-0.6c-0.1,0-0.2-0.1-0.3-0.3
			l-0.1-0.2c-0.1-0.2-0.2-0.4-0.5-0.5l-0.8-0.3v-1.2c0-0.5,0-1-0.1-1.4c-0.1-0.4-0.3-0.4-0.6-0.5c-1-0.2-2-0.4-3-0.5
			c0-0.1-0.1-0.3-0.1-0.4c-0.1-0.1-0.6-0.3-0.6-0.3l-0.2-2.2c-2.3-0.5-4.6-0.7-6.9-0.7c-3.3,0-7-0.1-8.5-0.2l0,0h-1.3l0,0
			c-1.5,0.1-5.3,0.2-8.5,0.2c-2.3,0-4.6,0.2-6.9,0.7l-0.3,2.2c0,0-0.5,0.2-0.6,0.3c-0.1,0.1-0.1,0.3-0.1,0.4l-3.2,0.4
			c0,0-1.8,0-1.7,1c0,0.6,0.5,1.1,1.2,1.1v1.2l-0.8,0.3c-0.2,0.1-0.4,0.3-0.5,0.5l0,0.2c0,0.1-0.2,0.2-0.3,0.3l-3.6,0.6
			c-0.6,0.1-1,0.6-1.1,1.2c-0.1,2.5-0.4,8.9-0.4,10.2c-0.1,0.8-0.2,1.5-0.5,2.2c5.3-0.4,20.6-1.5,27.8-1.5
			C-65.2,169.9-48.7,171.1-44.7,171.4z M-48.2,162c0-0.6,0.4-1,1-1l0,0c0.6,0,1,0.4,1,1v7.1c0,0.6-0.4,1-1,1l0,0c-0.6,0-1-0.4-1-1
			V162z M-56.7,161.3c0-0.9,0.7-1.7,1.6-1.7c0,0,0,0,0,0h0.1c0.9,0,1.6,0.8,1.6,1.7c0,0,0,0,0,0v6.4c0,0.9-0.7,1.7-1.6,1.7
			c0,0,0,0,0,0H-55c-0.9,0-1.6-0.8-1.6-1.7c0,0,0,0,0,0V161.3z"/>
	</g>
</g>
<g>
	<g>
		<path d="M79.9,8.6c-8.7,0-15.7,7-15.7,15.7c0,6.9,4.5,12.8,10.7,14.9c0.8,0.1,1.1-0.3,1.1-0.7c0-0.4,0-1.6,0-2.9
			c-3.9,0.7-5-1-5.3-1.8c-0.2-0.5-0.9-1.8-1.6-2.2c-0.5-0.3-1.3-1,0-1c1.2,0,2.1,1.1,2.4,1.6c1.4,2.4,3.7,1.7,4.6,1.3
			c0.1-1,0.5-1.7,1-2.1c-3.5-0.4-7.1-1.7-7.1-7.8c0-1.7,0.6-3.1,1.6-4.2c-0.2-0.4-0.7-2,0.2-4.2c0,0,1.3-0.4,4.3,1.6
			c1.3-0.4,2.6-0.5,3.9-0.5c1.3,0,2.7,0.2,3.9,0.5c3-2,4.3-1.6,4.3-1.6c0.9,2.2,0.3,3.8,0.2,4.2c1,1.1,1.6,2.5,1.6,4.2
			c0,6-3.7,7.4-7.2,7.8c0.6,0.5,1.1,1.4,1.1,2.9c0,2.1,0,3.8,0,4.3c0,0.4,0.3,0.9,1.1,0.7c6.4-2.2,10.7-8.2,10.7-14.9
			C95.6,15.7,88.6,8.6,79.9,8.6z"/>
	</g>
	<g>
		<path d="M136.2,83.3c-2.2,3.1-4.4,5.8-6.7,8.3c6.4,6.2,12.3,9.1,15.6,7.2c3.3-1.9,3.7-8.5,1.6-17.1C143.5,82.4,140,83,136.2,83.3z
			 M131.3,83.6c-1.4,0.1-2.9,0.1-4.3,0.1c-1.5,0-2.9,0-4.3-0.1c1.4,1.9,2.9,3.6,4.3,5.2C128.4,87.3,129.8,85.5,131.3,83.6z
			 M150.5,53.5c10.2,2.9,16.8,7.8,16.8,13.6c0,5.8-6.6,10.7-16.8,13.6c2.6,10.3,1.7,18.4-3.4,21.3c-5.1,2.9-12.6-0.4-20.2-7.7
			c-7.6,7.3-15.1,10.7-20.2,7.7c-5.1-2.9-5.9-11.1-3.4-21.3C93.2,77.8,86.6,73,86.6,67.1c0-5.8,6.6-10.7,16.8-13.6
			c-2.6-10.3-1.7-18.4,3.4-21.3c5.1-2.9,12.6,0.4,20.2,7.7c7.6-7.3,15.1-10.7,20.2-7.7S153,43.3,150.5,53.5z M146.8,52.6
			c2.2-8.6,1.7-15.2-1.6-17.1c-3.3-1.9-9.2,1-15.6,7.2c2.3,2.5,4.5,5.2,6.7,8.3C140,51.3,143.5,51.9,146.8,52.6z M107.1,81.7
			c-2.2,8.6-1.7,15.2,1.6,17.1c3.3,1.9,9.2-1,15.6-7.2c-2.3-2.5-4.5-5.2-6.7-8.3C113.9,83,110.3,82.4,107.1,81.7z M122.6,50.7
			c1.4-0.1,2.9-0.1,4.3-0.1c1.5,0,2.9,0,4.3,0.1c-1.4-1.9-2.9-3.6-4.3-5.2C125.5,47,124,48.8,122.6,50.7z M117.6,51
			c2.2-3.1,4.4-5.8,6.7-8.3c-6.4-6.2-12.3-9.1-15.6-7.2c-3.3,1.9-3.7,8.5-1.6,17.1C110.3,51.9,113.9,51.3,117.6,51z M134.1,79.7
			c1.3-1.9,2.6-4,3.8-6.1c1.2-2.1,2.4-4.3,3.4-6.4c-1-2.1-2.1-4.2-3.4-6.4c-1.2-2.1-2.5-4.2-3.8-6.1c-2.3-0.2-4.7-0.3-7.2-0.3
			c-2.5,0-4.9,0.1-7.2,0.3c-1.3,1.9-2.6,4-3.8,6.1c-1.2,2.1-2.4,4.3-3.4,6.4c1,2.1,2.1,4.2,3.4,6.4c1.2,2.1,2.5,4.2,3.8,6.1
			c2.3,0.2,4.7,0.3,7.2,0.3C129.4,79.9,131.8,79.8,134.1,79.7z M139,79.2c2.3-0.3,4.6-0.7,6.7-1.2c-0.6-2-1.4-4.2-2.3-6.4
			c-0.7,1.3-1.4,2.5-2.1,3.8C140.5,76.7,139.8,77.9,139,79.2z M114.8,55.1c-2.3,0.3-4.6,0.7-6.7,1.2c0.6,2,1.4,4.2,2.3,6.4
			c0.7-1.3,1.4-2.5,2.1-3.8C113.3,57.6,114,56.3,114.8,55.1z M108.1,78c2.1,0.5,4.3,0.9,6.7,1.2c-0.8-1.2-1.5-2.4-2.2-3.7
			c-0.7-1.3-1.4-2.5-2.1-3.8C109.6,73.8,108.8,76,108.1,78z M104.4,77.1c1-3.2,2.3-6.5,3.9-9.9c-1.6-3.4-2.9-6.7-3.9-9.9
			c-8.5,2.4-14,6.1-14,9.9C90.4,70.9,95.9,74.6,104.4,77.1z M145.7,56.3c-2.1-0.5-4.3-0.9-6.7-1.2c0.8,1.2,1.5,2.4,2.2,3.7
			c0.7,1.3,1.4,2.5,2.1,3.8C144.3,60.5,145.1,58.3,145.7,56.3z M149.4,57.2c-1,3.2-2.3,6.5-3.9,9.9c1.6,3.4,2.9,6.7,3.9,9.9
			c8.5-2.4,14-6.1,14-9.9C163.5,63.3,158,59.7,149.4,57.2z M126.9,74.3c-4,0-7.2-3.2-7.2-7.2c0-4,3.2-7.2,7.2-7.2
			c4,0,7.2,3.2,7.2,7.2C134.1,71.1,130.9,74.3,126.9,74.3z"/>
	</g>
	<g>
		<path d="M226.6,163.3l3.4,39.5l15.4,4.4l15.4-4.4l3.4-39.5H226.6z M256.8,176.2h-18l0.4,5h17.2l-1.3,14.8l-9.7,2.8l-9.7-2.7
			l-0.7-7.6h4.7l0.3,3.8l5.3,1.4l5.2-1.5l0.5-6.3h-16.4l-1.2-14.7h23.6L256.8,176.2z"/>
	</g>
	<g>
		<path d="M220.2,36.2l3.4,39.4l15.3,4.4l15.4-4.4l3.4-39.4H220.2z M248.6,68.9l-9.6,2.7l-9.6-2.8l-0.7-7.6h4.7l0.3,3.9l5.2,1.5l0,0
			l5.2-1.4l0.6-6.3h-11l-0.4-4.9h11.8l0.4-5h-18l-0.4-4.8h23.5L248.6,68.9z"/>
	</g>
	<g>
		<path d="M63.4,112.1H70l-3.3-6.9L63.4,112.1z"/>
		<path d="M66.7,94.7l-17.4,6.2l3.6,21.1l13.8,7.5l13.8-7.5l3.6-21.1L66.7,94.7z M73.6,119.6l-2.1-4.3H62l-2.1,4.3h-3.1l9.9-21.7
			l9.9,21.7H73.6z"/>
	</g>
	<g>
		<path d="M29,50.4l-6.7-11.6h-9.5L29,66.9l16.2-28.1h-9.5L29,50.4z"/>
		<path d="M47.4,38.8L29,70.8L10.6,38.8H0.1l28.9,50l28.9-50H47.4z"/>
	</g>
	<g>
		<path d="M82.8,207.7l0.4-0.6l20.5-38.9l0-0.4l-9-17c-0.8-1.4-2.9-1.1-3.1,0.5L82.8,207.7z"/>
		<g>
			<path id="a_1_" class="st0" d="M83,207.3l0.3-0.6l20.3-38.5l-9-17c-0.7-1.4-2.6-1-2.9,0.5L83,207.3z"/>
		</g>
		<g>
			<path d="M83,207.3l0.3-0.6l20.3-38.5l-9-17c-0.7-1.4-2.6-1-2.9,0.5L83,207.3z"/>
		</g>
		<path d="M110.3,180.7l6.7-6.9l-6.7-12.8c-0.6-1.2-2.4-1.2-3.1,0l-3.6,6.9v0.6L110.3,180.7L110.3,180.7z"/>
		<g>
			<path id="c_1_" class="st0" d="M110.2,180.4l6.5-6.7l-6.5-12.4c-0.6-1.2-2.1-1.3-2.7-0.1l-3.6,7l-0.1,0.4L110.2,180.4z"/>
		</g>
		<g>
			<path d="M110.2,180.4l6.5-6.7l-6.5-12.4c-0.6-1.2-2.1-1.3-2.7-0.1l-3.6,7l-0.1,0.4L110.2,180.4z"/>
		</g>
		<path d="M82.8,207.7l0.2-0.2l0.7-0.3l26.2-26.1l0.3-0.9l-6.5-12.5L82.8,207.7z"/>
		<path d="M111.1,220.9l23.7-13.2l-6.8-41.7c-0.2-1.3-1.8-1.8-2.7-0.9l-42.6,42.7l23.6,13.2C107.8,221.7,109.7,221.7,111.1,220.9"/>
		<path d="M134.6,207.6l-6.7-41.4c-0.2-1.3-1.5-1.8-2.5-0.9L83,207.7l23.3,13c1.5,0.8,3.3,0.8,4.8,0L134.6,207.6L134.6,207.6z"/>
		<path d="M111.1,220.5c-1.5,0.8-3.3,0.8-4.8,0l-23.4-13l-0.2,0.2l23.6,13.2c1.5,0.8,3.3,0.8,4.8,0l23.7-13.2l-0.1-0.4L111.1,220.5
			L111.1,220.5z"/>
	</g>
	<g>
		<path class="st0" d="M25.6,116.3c0.6,1.6,1,3.3,1.1,5.1c0.2,2.2,0.1,4.3-0.4,6.4c0,0.1,0,0.1-0.1,0.2c-0.1,0-0.3,0-0.4,0
			c-1.2,0.2-2.4,0.4-3.5,0.6c-1.2,0.2-2.4,0.4-3.7,0.6c-0.4,0.1-1,0-1.1,0.6c0,0-0.1,0-0.1,0l0.1-3.6c0-2.9,0-5.7-0.1-8.6l0.6-0.1
			c0.9-0.2,1.9-0.3,2.8-0.5c1.1-0.2,2.2-0.3,3.3-0.5C24.6,116.4,25.1,116.3,25.6,116.3z"/>
		<path class="st0" d="M16.3,140.1c-0.6-0.5-1.2-1-1.8-1.6c-3.1-2.9-5.4-6.4-6.5-10.5c-0.3-1.1-0.5-2.3-0.6-3.5
			c0-0.8-0.1-1.7-0.1-2.5c0.2-2.2,0.5-4.3,1.1-6.4l0,0c0.1,0.1,0.2,0.2,0.2,0.2c0.6,1.8,1.2,3.7,1.9,5.5c1.9,5.8,3.9,11.6,5.8,17.4
			c0,0.1,0.1,0.2,0.2,0.3C16.6,139.1,16.3,140.1,16.3,140.1z"/>
		<path class="st0" d="M25.6,116.3c-0.5,0.1-1,0.1-1.5,0.2c-1.1,0.2-2.2,0.3-3.3,0.5c-0.9,0.1-1.9,0.3-2.8,0.5l-0.6,0.1l0-0.4
			c0-0.3-0.1-0.6-0.1-0.9c0-1.9,0-3.9-0.1-5.8c0-1.2,0-2.4-0.1-3.6c0-0.8,0-1.5-0.1-2.3c0-0.4-0.1-0.8-0.1-1.2c0-0.2,0-0.5,0-0.7
			c0.3,0.6,0.6,1.1,0.9,1.7c0.5,0.9,1.2,1.5,1.9,2.2C22.5,109.3,24.4,112.6,25.6,116.3z"/>
		<path class="st0" d="M17.5,129.7C17.5,129.7,17.5,129.7,17.5,129.7c0.3-0.6,0.8-0.5,1.2-0.6c1.2-0.2,2.4-0.4,3.7-0.6
			c1.2-0.2,2.4-0.4,3.5-0.6c0.1,0,0.3,0,0.4,0c-0.2,0.8-0.4,1.6-0.7,2.4c-0.3,0.9-0.7,1.7-1.1,2.5c-0.6,1.2-1.4,2.4-2.3,3.5
			c-0.7,0.8-1.4,1.6-2.2,2.3c-0.4,0.4-0.9,0.8-1.4,1.1l-0.1-0.1l-0.4-0.4l-0.4-1c-0.3-1.1-0.5-2.3-0.5-3.5l0-0.2l0.1-0.9
			c0-0.3,0-0.6,0.1-0.9C17.4,131.8,17.4,130.8,17.5,129.7L17.5,129.7z"/>
		<path class="st0" d="M17.5,129.7c0,1.1-0.1,2.1-0.1,3.2c0,0.3,0,0.6-0.1,0.9l-0.3,0.1c-0.6-1.8-1.2-3.5-1.8-5.3
			c-1-2.9-1.9-5.8-2.9-8.7c-0.8-2.4-1.6-4.7-2.4-7c0-0.1-0.1-0.2-0.2-0.3l1.7-3.2c0.1,0.1,0.1,0.2,0.2,0.3c0.8,2.4,1.6,4.8,2.4,7.1
			c1,3.1,2.1,6.2,3.1,9.3c0,0.1,0.1,0.2,0.2,0.4l0.2-0.3C17.5,127.3,17.5,128.5,17.5,129.7z"/>
		<path class="st0" d="M9.7,112.5c0.1,0.1,0.2,0.2,0.2,0.3c0.8,2.3,1.6,4.7,2.4,7c1,2.9,1.9,5.8,2.9,8.7c0.6,1.8,1.2,3.5,1.8,5.3
			l0.3-0.1l-0.1,0.9l-0.1,0.2c-0.1,0.9-0.2,1.9-0.3,2.8c-0.1,0.5-0.2,0.9-0.3,1.4c-0.1-0.1-0.2-0.2-0.2-0.3
			c-1.9-5.8-3.9-11.6-5.8-17.4c-0.6-1.8-1.2-3.7-1.9-5.5c0-0.1-0.1-0.2-0.2-0.2C8.9,114.6,9.3,113.5,9.7,112.5z"/>
		<path class="st0" d="M17.5,126.1l-0.2,0.3c-0.1-0.1-0.1-0.3-0.2-0.4c-1-3.1-2.1-6.2-3.1-9.3c-0.8-2.4-1.6-4.8-2.4-7.1
			c0-0.1-0.1-0.2-0.2-0.3l2.1-2.8c0.1,0.1,0.2,0.2,0.2,0.3c0.6,1.7,1.2,3.5,1.8,5.2c0.5,1.6,1.1,3.3,1.6,4.9c0,0.1,0.2,0.2,0.3,0.3
			l0,0.4C17.5,120.4,17.5,123.3,17.5,126.1z"/>
		<path class="st0" d="M17.5,117.2c-0.1-0.1-0.2-0.2-0.3-0.3c-0.6-1.6-1.1-3.3-1.6-4.9c-0.6-1.7-1.2-3.5-1.8-5.2
			c0-0.1-0.1-0.2-0.2-0.3c0.7-0.7,1.4-1.4,2.1-2c0.6-0.6,1.2-1.2,1.2-2.1c0,0,0-0.1,0.1-0.2l0.2,0.5c0,0.2,0,0.5,0,0.7
			c0,0.4,0.1,0.8,0.1,1.2c0,0.8,0.1,1.5,0.1,2.3c0,1.2,0,2.4,0.1,3.6c0,1.9,0,3.9,0.1,5.8C17.4,116.6,17.4,116.9,17.5,117.2z"/>
		<path class="st0" d="M16.6,139.1c0.1-0.5,0.2-0.9,0.3-1.4c0.1-0.9,0.2-1.9,0.3-2.8l0,0l0,0c0,1.2,0.2,2.3,0.5,3.5
			c-0.1,0.1-0.2,0.2-0.2,0.2c-0.3,0.7-0.5,1.5-0.8,2.2c0,0.1-0.1,0.2-0.2,0.3l-0.3-0.9C16.3,140.1,16.6,139.1,16.6,139.1z"/>
		<path class="st0" d="M16.6,141c0.1-0.1,0.2-0.2,0.2-0.3c0.3-0.7,0.5-1.5,0.8-2.2c0-0.1,0.1-0.2,0.2-0.2l0.4,1
			c-0.1,0.1-0.2,0.2-0.3,0.4l-0.9,2.5c0,0.1-0.2,0.2-0.2,0.3C16.8,142.4,16.6,141,16.6,141z"/>
		<path class="st0" d="M16.8,142.4c0.1-0.1,0.2-0.2,0.2-0.3l0.9-2.5c0-0.1,0.2-0.3,0.3-0.4l0.4,0.4c-0.2,0.2-0.3,0.4-0.3,0.7
			l-0.1,0.4c-0.1,0.1-0.1,0.1-0.2,0.2c-0.3,0.9-0.6,1.7-0.9,2.6c0,0.1-0.1,0.2-0.2,0.3C16.9,143.4,16.8,142.9,16.8,142.4L16.8,142.4
			z"/>
		<path class="st0" d="M16.9,143.9c0.1-0.1,0.2-0.2,0.2-0.3c0.3-0.9,0.6-1.7,0.9-2.6c0-0.1,0.1-0.1,0.2-0.2l-0.2,2
			c0,0.1-0.1,0.1-0.1,0.2c-0.2,0.6-0.4,1.1-0.6,1.7c0,0.1-0.1,0.2-0.2,0.3c-0.1-0.1-0.2-0.1-0.2-0.2
			C16.9,144.5,16.9,144.2,16.9,143.9z"/>
		<path class="st0" d="M17.1,145c0.1-0.1,0.1-0.2,0.2-0.3c0.2-0.6,0.4-1.1,0.6-1.7c0-0.1,0.1-0.1,0.1-0.2l0,1.3l-0.4,1.1
			C17.6,145.2,17.1,145,17.1,145z"/>
		<path class="st0" d="M17.6,145.2l0.4-1.1l0.1,1.3L17.6,145.2z"/>
		<path class="st0" d="M18.3,140.4c-0.1-0.3,0-0.5,0.3-0.7l0.1,0.1L18.3,140.4z"/>
		<path class="st0" d="M17.2,134.8L17.2,134.8L17.2,134.8l0-0.2C17.2,134.6,17.2,134.8,17.2,134.8z"/>
	</g>
	<g>
		<path d="M312.2,154.6l-12.4-7.2c-0.8-0.4-1.8-0.4-2.6,0l-12.5,7.2c-0.8,0.5-1.4,1.3-1.4,2.3v14.4c0,0.9,0.6,1.8,1.4,2.3l3.3,1.9
			c1.6,0.8,2.1,0.8,2.9,0.8c2.3,0,3.7-1.4,3.7-3.9v-14.2c0-0.2-0.1-0.5-0.3-0.5h-1.6c-0.2,0-0.6,0.3-0.6,0.5v14.2
			c0,1.1-1,2.2-2.8,1.3l-3.4-2c-0.1-0.1-0.2-0.2-0.2-0.3v-14.4c0-0.1,0.2-0.3,0.3-0.3l12.5-7.2c0.1-0.1,0.3-0.1,0.4,0l12.4,7.2
			c0.1,0.1,0.1,0.2,0.1,0.3v14.4c0,0.1,0.1,0.3-0.1,0.3l-12.4,7.2c-0.1,0.1-0.2,0.1-0.4,0l-3.2-1.9c-0.1-0.1-0.2-0.1-0.3,0
			c-0.9,0.5-1,0.6-1.9,0.9c-0.2,0.1-0.5,0.2,0.1,0.5l4.2,2.5c0.4,0.2,0.9,0.4,1.3,0.4c0.5,0,0.9-0.1,1.3-0.4l12.4-7.2
			c0.8-0.5,1.2-1.3,1.2-2.3v-14.4C313.3,156,313,155.1,312.2,154.6z M302.3,169c-3.3,0-4-0.9-4.3-2.6c0-0.2-0.2-0.4-0.4-0.4h-1.6
			c-0.2,0-0.4,0.2-0.4,0.4c0,2.1,1.1,4.6,6.6,4.6c4,0,6.2-1.5,6.2-4.3c0-2.7-1.8-3.4-5.7-3.9c-3.9-0.5-4.3-0.8-4.3-1.7
			c0-0.7,0.3-1.7,3.2-1.7c2.6,0,3.5,0.6,3.9,2.3c0,0.2,0.2,0.3,0.3,0.3h1.6c0.1,0,0.2,0,0.3-0.1c0.1-0.1,0.1-0.2,0.1-0.3
			c-0.3-3-2.2-4.4-6.2-4.4c-3.6,0-5.7,1.5-5.7,4c0,2.7,2.1,3.5,5.5,3.8c4.1,0.4,4.4,1,4.4,1.8C306.1,168.4,305,169,302.3,169z"/>
	</g>
	<g>
		<path d="M195.3,103c1.3-0.1,2.3-1.2,2.2-2.6c0-1.3-1.2-2.4-2.5-2.4h-0.1c-1.4,0-2.5,1.2-2.4,2.6c0,0.7,0.3,1.2,0.7,1.7
			c-1.5,3-3.8,5.2-7.3,7c-2.4,1.2-4.8,1.7-7.3,1.4c-2-0.3-3.6-1.2-4.5-2.6c-1.4-2.2-1.6-4.5-0.4-6.9c0.8-1.7,2.2-2.9,3-3.6
			c-0.2-0.6-0.4-1.6-0.6-2.3c-6.5,4.7-5.8,11-3.8,14c1.5,2.2,4.5,3.6,7.8,3.6c0.9,0,1.8-0.1,2.7-0.3
			C188.5,111.4,192.8,108.1,195.3,103L195.3,103z M203.1,97.5c-3.4-4-8.4-6.2-14.1-6.2h-0.7c-0.4-0.8-1.2-1.3-2.2-1.3H186
			c-1.4,0-2.5,1.2-2.4,2.6c0,1.3,1.2,2.4,2.5,2.4h0.1c1,0,1.8-0.7,2.2-1.5h0.8c3.4,0,6.6,1,9.5,2.9c2.2,1.5,3.8,3.4,4.7,5.7
			c0.8,1.9,0.7,3.7-0.1,5.3c-1.2,2.4-3.3,3.7-6.1,3.7c-1.8,0-3.5-0.5-4.4-0.9c-0.5,0.4-1.4,1.2-2,1.6c1.9,0.9,3.9,1.4,5.8,1.4
			c4.3,0,7.4-2.4,8.7-4.7C206.6,105.7,206.5,101.3,203.1,97.5L203.1,97.5z M180.5,103.8c0,1.3,1.2,2.4,2.5,2.4h0.1
			c1.4,0,2.5-1.2,2.4-2.6c0-1.3-1.2-2.4-2.5-2.4h-0.1c-0.1,0-0.2,0-0.3,0c-1.8-3-2.6-6.3-2.3-9.9c0.2-2.7,1.1-5,2.6-6.9
			c1.3-1.7,3.8-2.5,5.5-2.5c4.7-0.1,6.7,5.8,6.9,8.2c0.6,0.1,1.6,0.4,2.2,0.7c-0.5-7.2-5-11-9.3-11c-4,0-7.7,2.9-9.2,7.2
			c-2.1,5.7-0.7,11.2,1.8,15.5C180.6,102.8,180.4,103.3,180.5,103.8L180.5,103.8z"/>
	</g>
	<g>
		<path d="M207.3,176.1c-2.4,0-4.4,0.6-6.2,1.4c-0.6-1.3-1.3-2.4-1.4-3.2c-0.1-1-0.3-1.5-0.1-2.7c0.1-1.1,0.8-2.8,0.8-2.9
			c0-0.1-0.1-0.7-1.5-0.7c-1.4,0-2.5,0.3-2.7,0.6s-0.4,1.2-0.6,2c-0.2,1.2-2.7,5.7-4.2,8c-0.5-0.9-0.9-1.7-0.9-2.3
			c-0.1-1-0.3-1.5-0.1-2.7c0.1-1.1,0.8-2.8,0.8-2.9c0-0.1-0.1-0.7-1.5-0.7c-1.4,0-2.5,0.3-2.7,0.6c-0.1,0.4-0.3,1.2-0.6,2
			c-0.3,0.8-3.6,8.2-4.5,10.1c-0.4,1-0.8,1.8-1.1,2.3c-0.3,0.5,0,0,0,0.1c-0.2,0.5-0.4,0.7-0.4,0.7v0c-0.2,0.3-0.4,0.7-0.5,0.7
			c-0.1,0-0.2-0.9,0-2.1c0.5-2.6,1.7-6.6,1.7-6.7c0-0.1,0.2-0.8-0.8-1.1c-1-0.4-1.3,0.2-1.4,0.2c-0.1,0-0.1,0.2-0.1,0.2
			s1.1-4.5-2.1-4.5c-2,0-4.7,2.1-6,4.1c-0.8,0.5-2.7,1.4-4.6,2.5c-0.7,0.4-1.5,0.8-2.2,1.2l-0.1-0.2c-3.8-4.1-10.8-6.9-10.5-12.4
			c0.1-2,0.8-7.2,13.5-13.5c10.4-5.2,18.7-3.8,20.2-0.6c2.1,4.5-4.4,12.9-15.3,14.1c-4.1,0.5-6.3-1.1-6.8-1.7
			c-0.6-0.6-0.7-0.7-0.9-0.5c-0.3,0.2-0.1,0.7,0,1.1c0.3,0.8,1.6,2.3,3.9,3.1c2,0.7,6.8,1,12.7-1.2c6.5-2.5,11.7-9.6,10.2-15.5
			c-1.5-6-11.5-8-20.9-4.6c-5.6,2-11.6,5.1-16,9.2c-5.2,4.8-6,9.1-5.7,10.8c1.2,6.3,9.8,10.3,13.3,13.3c-0.2,0.1-0.3,0.2-0.5,0.3
			c-1.7,0.8-8.3,4.3-9.9,7.9c-1.9,4.1,0.3,7.1,1.7,7.5c4.4,1.2,9-1,11.4-4.6c2.4-3.7,2.2-8.4,1-10.6l0-0.1l1.4-0.8
			c0.9-0.5,1.7-1,2.5-1.4c-0.4,1.2-0.7,2.5-0.9,4.5c-0.2,2.3,0.8,5.4,2,6.6c0.6,0.5,1.2,0.5,1.6,0.5c1.5,0,2.1-1.2,2.9-2.7
			c0.9-1.8,1.7-3.8,1.7-3.8s-1,5.5,1.7,5.5c1,0,2-1.3,2.4-2v0c0,0,0,0,0.1-0.1c0.1-0.1,0.1-0.2,0.2-0.3v0c0.4-0.7,1.3-2.3,2.6-4.9
			c1.7-3.4,3.4-7.6,3.4-7.6s0.2,1,0.7,2.7c0.3,1,0.9,2.1,1.4,3.2c-0.4,0.6-0.6,0.9-0.6,0.9l0,0c-0.3,0.4-0.7,0.9-1,1.3
			c-1.4,1.6-3,3.5-3.2,4c-0.3,0.6-0.2,1.1,0.3,1.5c0.4,0.3,1,0.3,1.7,0.3c1.2-0.1,2.1-0.4,2.5-0.6c0.7-0.2,1.4-0.6,2.2-1.1
			c1.3-1,2.1-2.4,2.1-4.2c0-1-0.4-2-0.8-3c0.1-0.2,0.2-0.3,0.4-0.5c2.1-3.1,3.7-6.4,3.7-6.4s0.2,1,0.7,2.7c0.3,0.9,0.8,1.8,1.2,2.7
			c-2,1.6-3.2,3.5-3.6,4.7c-0.8,2.3-0.2,3.3,1,3.5c0.5,0.1,1.3-0.1,1.8-0.4c0.7-0.2,1.5-0.6,2.3-1.2c1.3-1,2.6-2.4,2.5-4.2
			c0-0.8-0.3-1.7-0.6-2.5c1.7-0.7,3.8-1.1,6.6-0.8c5.9,0.7,7.1,4.4,6.9,5.9c-0.2,1.5-1.5,2.4-1.9,2.7c-0.4,0.3-0.5,0.3-0.5,0.5
			c0.1,0.3,0.2,0.3,0.6,0.2c0.5-0.1,3.1-1.3,3.2-4.1C216.9,180.1,213.4,176.1,207.3,176.1L207.3,176.1z M161.7,191.5
			c-2,2.1-4.7,2.9-5.9,2.3c-1.3-0.7-0.8-3.9,1.6-6.1c1.5-1.4,3.4-2.7,4.6-3.4c0.3-0.2,0.7-0.4,1.2-0.7c0.1-0.1,0.1-0.1,0.1-0.1
			c0.1-0.1,0.2-0.1,0.3-0.2C164.6,186.4,163.8,189.3,161.7,191.5L161.7,191.5z M176,181.8c-0.7,1.7-2.1,5.9-3,5.7
			c-0.7-0.2-1.2-3.4-0.1-6.6c0.5-1.6,1.7-3.5,2.3-4.3c1.1-1.2,2.2-1.6,2.5-1.1C178.1,176.1,176.4,180.8,176,181.8z M187.8,187.4
			c-0.3,0.1-0.6,0.3-0.7,0.2c-0.1-0.1,0.1-0.3,0.1-0.3s1.5-1.6,2.1-2.3c0.3-0.4,0.7-0.9,1.2-1.5v0.2
			C190.4,185.6,188.6,186.9,187.8,187.4L187.8,187.4z M196.8,185.4c-0.2-0.2-0.2-0.7,0.5-2.2c0.3-0.6,0.9-1.6,2-2.6
			c0.1,0.4,0.2,0.8,0.2,1.1C199.6,184.1,197.9,185,196.8,185.4z"/>
	</g>
	<g>
		<path d="M299.6,130.2c0,0.5-0.4,0.9-0.8,0.9c-0.5,0-0.9-0.4-0.9-0.9c0-0.5,0.4-0.9,0.9-0.9C299.2,129.3,299.6,129.7,299.6,130.2z"
			/>
		<path d="M309.1,129.1c0,1.2-0.9,2-2.4,2c-1.4,0-2.3-0.7-2.4-1.9l0-0.3h1.4l0,0.3c0,0.4,0.4,0.6,1,0.6c0.5,0,0.9-0.2,0.9-0.5
			c0-0.1,0-0.4-0.8-0.5l-0.7-0.2c-1.1-0.3-1.7-0.9-1.7-1.8c0-1.1,0.9-1.9,2.3-1.9c1.3,0,2.2,0.7,2.2,1.8l0,0.3h-1.4l0-0.3
			c-0.1-0.4-0.4-0.6-0.8-0.6c-0.4,0-0.8,0.1-0.8,0.5c0,0.1,0,0.3,0.8,0.5l0.6,0.1C308.2,127.5,309.1,127.9,309.1,129.1z"/>
		<path d="M303.9,125v4.2c0,1.3-0.8,2-2,2c-1.2,0-2-0.8-2-1.9h0.3V129h1.1v0.3c0,0.3,0.2,0.5,0.5,0.5c0.3,0,0.6-0.1,0.6-0.6V125
			H303.9z"/>
		<polygon points="248.4,147 248.2,147.2 247.9,147.4 236.9,132.7 221.6,110.2 221.5,132.8 219.4,132.8 219.4,107 221.8,107 		"/>
		<polygon points="299.2,107 299.2,109 290.4,109 290.4,132.8 288.2,132.8 288.2,109 279.4,109 279.4,107 		"/>
		<polygon points="270.1,119.6 279.7,132.8 277.1,132.8 268.7,121.3 260.4,132.8 240.4,132.8 240.4,107 257.8,107 257.8,109 
			242.5,109 242.5,118.5 256.9,118.5 256.9,120.4 242.5,120.4 242.5,130.9 258,130.9 258,132.5 267.4,119.6 258.4,107 261,107 
			261.1,107.2 268.7,117.9 276.6,107.2 287.6,93.1 287.8,93.3 288.1,93.5 		"/>
	</g>
	<path class="st0" d="M194,0.4c-7.1,0-11.6,3.5-13.4,10.6c2.7-3.5,5.8-4.9,9.4-4c2,0.5,3.5,2,5.1,3.6c2.6,2.6,5.7,5.7,12.3,5.7
		c7.1,0,11.6-3.5,13.4-10.6c-2.7,3.5-5.8,4.9-9.3,4c-2-0.5-3.5-2-5.1-3.6C203.7,3.4,200.6,0.4,194,0.4z M180.6,16.3
		c-7.1,0-11.6,3.5-13.4,10.6c2.7-3.5,5.8-4.9,9.3-4c2,0.5,3.5,2,5.1,3.6c2.6,2.6,5.7,5.7,12.3,5.7c7.1,0,11.6-3.5,13.4-10.6
		c-2.7,3.5-5.8,4.9-9.4,4c-2-0.5-3.5-2-5.1-3.6C190.3,19.3,187.3,16.3,180.6,16.3z M167.3,0.4"/>
	<path d="M324.8,36.9h-43.3c-0.6,0-1.1,0.5-1.1,1.1v43.3c0,0.6,0.5,1.1,1.1,1.1h43.3c0.6,0,1.1-0.5,1.1-1.1V38
		C325.9,37.4,325.4,36.9,324.8,36.9z M307.5,61.1h-5.4V78h-4.3V61.1h-5.4v-3.7h15.1V61.1z M308.7,77v-4.5c0,0,2.5,1.9,5.4,1.9
		s2.8-1.9,2.8-2.2c0-2.8-8.3-2.8-8.3-9c0-8.4,12.2-5.1,12.2-5.1l-0.2,4c0,0-2-1.4-4.3-1.4s-3.1,1.1-3.1,2.3c0,3,8.4,2.7,8.4,8.8
		C321.6,81.2,308.7,77,308.7,77z"/>
	<g>
		<path d="M135.1,128.6l-10.6-10.6c-0.6-0.6-1.6-0.6-2.2,0l-2.2,2.2l2.8,2.8c0.6-0.2,1.4-0.1,1.9,0.4c0.5,0.5,0.7,1.3,0.4,1.9
			l2.7,2.7c0.6-0.2,1.4-0.1,1.9,0.4c0.7,0.7,0.7,1.9,0,2.6c-0.7,0.7-1.9,0.7-2.6,0c-0.5-0.5-0.7-1.3-0.4-2l-2.5-2.5v6.6
			c0.2,0.1,0.3,0.2,0.5,0.4c0.7,0.7,0.7,1.9,0,2.6c-0.7,0.7-1.9,0.7-2.6,0c-0.7-0.7-0.7-1.9,0-2.6c0.2-0.2,0.4-0.3,0.6-0.4v-6.6
			c-0.2-0.1-0.4-0.2-0.6-0.4c-0.5-0.5-0.7-1.4-0.4-2l-2.7-2.7l-7.2,7.2c-0.6,0.6-0.6,1.6,0,2.2l10.6,10.6c0.6,0.6,1.6,0.6,2.2,0
			l10.5-10.5C135.7,130.2,135.7,129.2,135.1,128.6L135.1,128.6z"/>
	</g>
	<g>
		<path d="M13,159c-1.3,1.3-1,2.8,1.3,6.1c1.2,1.7,2.5,4.4,3,5.9c0.5,1.6,1.5,3.8,2.2,4.9c1.3,1.8,1.3,2.2,0.4,5.4
			c-0.5,2-0.7,4.6-0.4,6.2c0.4,2.7,2.6,6.6,3.9,7c1.2,0.4,2.8-1.7,2.9-3.5c0-1.6,0.1-1.7,0.8-0.5c1.2,2,5.1,6.2,5.4,5.9
			c0.1-0.1-0.7-1.8-1.9-3.6c-1.2-1.9-2.5-4.4-3-5.6c-0.7-1.9-1-2-1.8-1.2c-0.5,0.5-1.2,2-1.3,3.3c-0.5,3.1-1.7,3.5-2.6,0.8
			c-0.9-2.6-0.9-7.1,0-10.2c0.6-2.1,0.6-2.7-0.5-4.3c-0.7-1-1.8-3.3-2.4-5.1c-0.6-1.8-1.9-4.5-3-5.9c-2.5-3.5-2.5-4.8,0.1-4.3
			c1.1,0.2,2.8,1,3.8,1.7c1,0.7,2.6,1.3,3.6,1.3c3.1,0,8.4,3,12.3,6.9c3,3,4.5,5.4,7.8,12c3.8,7.8,4.2,8.2,6.5,9
			c2.8,1,8.7,4.5,8.7,5.3c0,0.3-1.5,0.6-3.3,0.8c-4.8,0.5-5.2,1.4-2.1,4.2c1.5,1.3,4.2,3.3,6.2,4.3l3.6,2l-1.7-2.1
			c-1-1.2-2.9-2.9-4.5-3.9s-2.8-2-2.8-2.2c0-0.3,1.1-0.7,2.4-0.9c3.6-0.6,4.6-1,4.6-1.6c0-1-6.5-5.8-9.5-7.2
			c-2.6-1.2-2.9-1.7-6.3-8.7c-3-6.4-4.2-8.2-8.1-12c-4.9-4.9-8.3-7-12.7-7.7c-1.5-0.3-3.5-1-4.4-1.7C18.4,158.4,14.1,157.9,13,159
			L13,159z"/>
	</g>
	<g>
		<path d="M277.1,204.4v6.2h10.3v2.1h8.2v-2.1H314v-12.4h-36.9L277.1,204.4L277.1,204.4z M287.3,204.4v4.1h-2.1v-6.1h-2v6.1h-4.2
			v-8.2h8.3C287.3,200.3,287.3,204.4,287.3,204.4z M297.6,204.4l0,4.1l-4,0v2.1h-4.2v-10.3h8.3L297.6,204.4L297.6,204.4z M312,204.4
			v4.1h-2.1v-6.1h-2.1v6.2l-2.1,0v-6.1h-2v6.1h-4.1v-8.2H312L312,204.4L312,204.4z M293.6,204.4v2h1.9v-4.1h-1.9V204.4L293.6,204.4z
			"/>
	</g>
	<g>
		<path d="M19.1,9.5h-5.6l-2.4,12.2H14l0.6-3.2h2.7c2.6,0.1,5.4-2,5.4-5.6C22.7,10.9,21.5,9.7,19.1,9.5L19.1,9.5z M17,16.3h-1.8
			l0.8-4.5h2c1.1,0,1.8,0.5,1.8,1.4C19.5,15.7,18.3,16.1,17,16.3z M29.2,9.5h-2.7l0.6-3.2h-2.9l-2.4,12.2h2.9l1.4-6.8h2.3
			c1.1,0,1.1,0.5,0.9,1.2l-1.1,5.6h3l1.1-6.2C32.5,10.9,31.6,9.7,29.2,9.5L29.2,9.5z M39.2,9.5h-5.6l-2.4,12.2h2.9l0.6-3.2h2.7
			c2.6,0.1,5.4-2,5.4-5.6C42.8,10.9,41.6,9.7,39.2,9.5L39.2,9.5z M37.1,16.3h-1.8l0.8-4.5h2c1.1,0,1.8,0.5,1.8,1.4
			C39.7,15.7,38.5,16.1,37.1,16.3z"/>
	</g>
	<g>
		<path d="M277.7,6.1c-2.3,2.3-4.3,4.2-4.3,4.2c-0.1,0-1.3-0.9-2.8-2.1l-2.6-2.1l-2.1,1.1v10.7l2.1,1.1l2.4-1.9
			c1.3-1.1,2.6-2,2.8-2.1c0.3-0.2,0.6,0.1,4.6,4l4.2,4.2l2.6-1.1l2.6-1V4l-2-0.8c-1.1-0.4-2.3-0.9-2.6-1l-0.6-0.2L277.7,6.1
			L277.7,6.1z M281.8,12.6c0,2.4,0,4.3-0.1,4.3c-0.2,0-5.4-4.2-5.4-4.3c0-0.2,5.2-4.2,5.4-4.2C281.8,8.3,281.8,10.2,281.8,12.6
			L281.8,12.6z M269.6,11l1.5,1.5l-1.5,1.5c-0.8,0.8-1.6,1.5-1.6,1.5c-0.1,0-0.1-1.4-0.1-3.1s0-3.1,0.1-3.1
			C268.1,9.5,268.8,10.2,269.6,11L269.6,11z"/>
	</g>
	<g>
		<polygon points="137.7,7.5 137.7,18.3 135.5,18.3 130.4,10.7 130.4,18.3 128.1,18.3 128.1,7.5 130.7,7.5 135.5,14.9 135.5,7.5 		
			"/>
		<polygon points="127,18.3 124.7,18.3 123.6,15.7 118.2,18.5 119.4,15.6 123,13.9 121.6,10.3 118.2,18.5 116.5,17 120.5,7.5 
			122.8,7.5 		"/>
		<path d="M142,7.5h-2.3v10.8h2.3V7.5z"/>
		<polygon points="152.7,9.5 149.1,11.3 149.1,18.3 146.8,18.3 146.8,10.2 148.3,9.5 143.3,9.5 143.3,7.5 151.5,7.5 151.7,7.8 		"/>
		<polygon points="163.5,7.5 159.5,14.2 159.5,18.3 157.2,18.3 157.2,14.2 153.2,7.5 155.7,7.5 158.4,12.1 161,7.5 		"/>
		<path d="M115.7,15.1c0,0.7-0.2,1.4-0.7,2c-0.7,0.9-2,1.4-3.4,1.4c-2.5,0-4.2-1.2-4.6-3.3h2.4c0.3,1,1.1,1.4,2.2,1.4
			c1.3,0,2.2-0.7,2.2-1.9c0,0,0.1,0,0.1,0.1c0,0-0.1-0.1-0.1-0.1v0c-0.4-0.3-1-0.5-1.7-0.7l-2-0.4c-1.6-0.4-2.8-1.2-2.8-2.9
			c0-0.7,0.2-1.4,0.6-1.9c0.7-0.9,1.9-1.4,3.3-1.4c2.5,0,3.9,1.3,4.3,3.1h-2.3c-0.3-0.7-0.9-1.3-2-1.3c-1.2,0-2.1,0.7-2.1,1.8
			c0.4,0.3,1,0.5,1.6,0.6l2,0.4C114.6,12.5,115.7,13.5,115.7,15.1z"/>
		<path d="M109.1,10.9c0,0,0.1,0.1,0.1,0.1h0C109.2,11,109.1,10.9,109.1,10.9z"/>
		<path d="M113.9,14.8c0,0-0.1-0.1-0.1-0.1v0C113.9,14.7,113.9,14.8,113.9,14.8z"/>
		<path d="M113.9,14.8c0,0-0.1-0.1-0.1-0.1v0C113.9,14.7,113.9,14.8,113.9,14.8z"/>
		<path d="M109.2,11L109.2,11c-0.1,0-0.1,0-0.1-0.1C109.1,10.9,109.2,11,109.2,11z"/>
	</g>
</g>
</svg>
