<svg xmlns="http://www.w3.org/2000/svg" viewBox="0 0 36.4 32.33"><title>react</title><g id="Layer_2" data-name="Layer 2"><g id="Layer_1-2" data-name="Layer 1"><path d="M22.4,23.47a40,40,0,0,1-3,3.7c2.9,2.8,5.5,4.1,7,3.2s1.7-3.8.7-7.7A21.92,21.92,0,0,1,22.4,23.47Zm-2.2.2h-4a22,22,0,0,0,2,2.3C18.9,25.27,19.5,24.47,20.2,23.67Zm8.6-13.6c4.6,1.3,7.6,3.5,7.6,6.1s-3,4.8-7.6,6.1c1.2,4.6.8,8.3-1.5,9.6s-5.7-.2-9.1-3.5c-3.4,3.3-6.8,4.8-9.1,3.5s-2.7-5-1.5-9.6C3,21,0,18.77,0,16.17s3-4.8,7.6-6.1c-1.2-4.6-.8-8.3,1.5-9.6s5.7.2,9.1,3.5C21.6.67,25-.83,27.3.47S30,5.47,28.8,10.07Zm-1.7-.4c1-3.9.8-6.9-.7-7.7s-4.2.5-7,3.2c1,1.1,2,2.4,3,3.7C24.1,9.07,25.7,9.37,27.1,9.67ZM9.2,22.77c-1,3.9-.8,6.9.7,7.7s4.2-.5,7-3.2c-1-1.1-2-2.4-3-3.7C12.3,23.37,10.7,23.07,9.2,22.77Zm7-14h4a22,22,0,0,0-2-2.3C17.5,7.17,16.9,8,16.2,8.77ZM14,9a40,40,0,0,1,3-3.7c-2.9-2.8-5.5-4.1-7-3.2s-1.7,3.8-.7,7.7A21.92,21.92,0,0,1,14,9Zm7.5,12.9a26.06,26.06,0,0,0,1.7-2.8,20,20,0,0,0,1.5-2.9c-.5-1-1-1.9-1.5-2.9s-1.1-1.9-1.7-2.8c-1.1-.1-2.1-.1-3.3-.1s-2.2,0-3.3.1a26.06,26.06,0,0,0-1.7,2.8,20,20,0,0,0-1.5,2.9c.5,1,1,1.9,1.5,2.9s1.1,1.9,1.7,2.8c1.1.1,2.1.1,3.3.1S20.4,22,21.5,21.87Zm2.2-.2a23.42,23.42,0,0,0,3-.5,21.16,21.16,0,0,0-1.1-2.9c-.3.6-.6,1.1-.9,1.7A15.05,15.05,0,0,0,23.7,21.67Zm-11-10.9a23.42,23.42,0,0,0-3,.5,21.16,21.16,0,0,0,1.1,2.9c.3-.6.6-1.1.9-1.7A15.05,15.05,0,0,0,12.7,10.77Zm-3,10.3a26.8,26.8,0,0,0,3,.5c-.3-.5-.7-1.1-1-1.7s-.6-1.1-.9-1.7C10.4,19.27,10,20.17,9.7,21.07ZM8,20.67a36.7,36.7,0,0,1,1.7-4.5A27.53,27.53,0,0,1,8,11.67c-3.9,1.1-6.3,2.8-6.3,4.5S4.2,19.57,8,20.67Zm18.7-9.4a26.8,26.8,0,0,0-3-.5c.3.5.7,1.1,1,1.7s.6,1.1.9,1.7C26,13.17,26.4,12.27,26.7,11.27Zm1.7.5a36.7,36.7,0,0,1-1.7,4.5,27.53,27.53,0,0,1,1.7,4.5c3.9-1.1,6.3-2.8,6.3-4.5S32.2,12.87,28.4,11.77Zm-10.2,7.7a3.2,3.2,0,1,1,3.2-3.2A3.22,3.22,0,0,1,18.2,19.47Z"/></g></g></svg>