<svg xmlns="http://www.w3.org/2000/svg" viewBox="0 0 325.78 221.18"><defs><style>.cls-1{fill-rule:evenodd;}</style></defs><title>tech</title><g id="Layer_2" data-name="Layer 2"><g id="Layer_1-2" data-name="Layer 1"><path d="M79.78,8.27a15.7,15.7,0,0,0-5,30.6c.79.13,1.08-.34,1.08-.75s0-1.61,0-2.92c-3.94.72-5-1-5.28-1.85A5.79,5.79,0,0,0,69,31.13c-.55-.29-1.33-1,0-1a3.16,3.16,0,0,1,2.42,1.61A3.35,3.35,0,0,0,76,33a3.32,3.32,0,0,1,1-2.1c-3.49-.39-7.14-1.75-7.14-7.75a6.07,6.07,0,0,1,1.61-4.22,5.63,5.63,0,0,1,.15-4.16s1.32-.42,4.32,1.61a14.8,14.8,0,0,1,7.85,0c3-2,4.32-1.61,4.32-1.61a5.63,5.63,0,0,1,.15,4.16,6,6,0,0,1,1.61,4.22c0,6-3.67,7.36-7.16,7.75a3.71,3.71,0,0,1,1.06,2.9c0,2.1,0,3.79,0,4.32s.3.9,1.08.75a15.71,15.71,0,0,0-5-30.6Z"/><path d="M136.12,83a83.09,83.09,0,0,1-6.66,8.29c6.38,6.19,12.31,9.09,15.6,7.19s3.74-8.49,1.57-17.1A84,84,0,0,1,136.12,83Zm-5,.33c-1.43.06-2.88.09-4.34.09s-2.91,0-4.34-.09c1.44,1.88,2.89,3.62,4.34,5.2C128.24,86.91,129.69,85.17,131.13,83.29Zm19.22-30.1c10.16,2.92,16.79,7.76,16.79,13.6s-6.63,10.69-16.79,13.6C152.9,90.65,152,98.82,147,101.74s-12.57-.41-20.17-7.75c-7.6,7.34-15.12,10.67-20.18,7.75s-5.93-11.09-3.38-21.35c-10.16-2.91-16.79-7.75-16.79-13.6s6.63-10.68,16.79-13.6c-2.55-10.25-1.68-18.42,3.38-21.34s12.58.4,20.18,7.74c7.6-7.34,15.11-10.66,20.17-7.74S152.9,42.94,150.35,53.19Zm-3.72-.94c2.17-8.62,1.72-15.2-1.57-17.1s-9.22,1-15.6,7.19a82,82,0,0,1,6.66,8.29A82.22,82.22,0,0,1,146.63,52.25ZM107,81.34c-2.18,8.61-1.72,15.2,1.57,17.1s9.22-1,15.6-7.19A83.09,83.09,0,0,1,117.46,83,84,84,0,0,1,107,81.34Zm15.5-31c1.43-.06,2.87-.09,4.34-.09s2.91,0,4.34.09c-1.44-1.88-2.89-3.62-4.34-5.2C125.34,46.68,123.89,48.42,122.45,50.3Zm-5,.33a82,82,0,0,1,6.66-8.29c-6.38-6.19-12.31-9.09-15.6-7.19s-3.75,8.48-1.57,17.1A82.22,82.22,0,0,1,117.46,50.63ZM134,79.3c1.32-1.93,2.6-4,3.84-6.12s2.36-4.28,3.38-6.39c-1-2.1-2.14-4.24-3.38-6.38s-2.52-4.19-3.84-6.12c-2.33-.18-4.75-.27-7.22-.27s-4.89.09-7.22.27c-1.32,1.93-2.61,4-3.84,6.12s-2.37,4.28-3.38,6.38c1,2.11,2.14,4.25,3.38,6.39s2.52,4.19,3.84,6.12c2.33.17,4.75.27,7.22.27S131.68,79.47,134,79.3Zm4.9-.5c2.34-.31,4.57-.7,6.67-1.16-.65-2-1.43-4.17-2.34-6.35-.66,1.26-1.36,2.53-2.09,3.8S139.67,77.59,138.91,78.8Zm-24.24-24c-2.34.3-4.57.69-6.67,1.16.65,2,1.43,4.17,2.33,6.35.67-1.26,1.36-2.53,2.1-3.8S113.91,56,114.67,54.79ZM108,77.64c2.1.46,4.33.85,6.67,1.16-.76-1.21-1.51-2.45-2.24-3.71s-1.43-2.54-2.1-3.8C109.43,73.47,108.65,75.6,108,77.64Zm-3.73-.93a85.31,85.31,0,0,1,3.85-9.92,85.19,85.19,0,0,1-3.85-9.91c-8.54,2.43-14,6.11-14,9.91S95.73,74.28,104.27,76.71ZM145.58,56c-2.1-.47-4.33-.86-6.67-1.16.76,1.2,1.51,2.44,2.24,3.71s1.43,2.54,2.09,3.8C144.15,60.12,144.93,58,145.58,56Zm3.73.93a83.56,83.56,0,0,1-3.86,9.91,83.68,83.68,0,0,1,3.86,9.92c8.54-2.43,14-6.12,14-9.92S157.85,59.31,149.31,56.88ZM126.79,74A7.17,7.17,0,1,1,134,66.79,7.17,7.17,0,0,1,126.79,74Z"/><path d="M226.51,163l3.42,39.51,15.37,4.39,15.41-4.4,3.42-39.5Zm30.18,12.93h-18l.39,5H256.3L255,195.73l-9.65,2.75-9.67-2.74-.66-7.6h4.73l.33,3.85,5.27,1.45,5.24-1.46.54-6.29H234.74L233.5,171h23.6Z"/><path d="M220.12,35.83l3.42,39.36,15.3,4.38,15.35-4.38,3.42-39.36ZM248.5,68.52l-9.63,2.75-9.61-2.76-.66-7.59h4.71l.34,3.86,5.23,1.48v0l5.22-1.45.55-6.26h-11l-.39-4.89h11.78l.42-5h-18l-.39-4.78h23.49Z"/><path d="M63.32,111.75H69.9l-3.29-6.94Z"/><path d="M66.61,94.36l-17.39,6.21,3.58,21.11,13.81,7.46,13.8-7.46L84,100.57Zm6.83,24.84-2.06-4.35H61.84l-2.06,4.35H56.67l9.94-21.74,9.94,21.74Z"/><path d="M28.88,50,22.21,38.47H12.66L28.88,66.56,45.1,38.47H35.55Z"/><path d="M47.32,38.47,28.88,70.4,10.44,38.47H0l28.88,50,28.88-50Z"/><path d="M82.64,207.39l.43-.61,20.48-38.85,0-.42-9-16.95a1.68,1.68,0,0,0-3.14.53Z"/><path id="a" class="cls-1" d="M82.89,206.93l.33-.64,20.27-38.45-9-17a1.52,1.52,0,0,0-2.89.53Z"/><path d="M82.89,206.93l.33-.64,20.27-38.45-9-17a1.52,1.52,0,0,0-2.89.53Z"/><path d="M110.18,180.34l6.72-6.88-6.73-12.84a1.73,1.73,0,0,0-3,0l-3.59,6.85v.59l6.65,12.28Z"/><path id="c" class="cls-1" d="M110.06,180.05l6.53-6.69-6.53-12.44a1.51,1.51,0,0,0-2.75-.12l-3.61,6.95-.11.36Z"/><path d="M110.06,180.05l6.53-6.69-6.53-12.44a1.51,1.51,0,0,0-2.75-.12l-3.61,6.95-.11.36Z"/><path d="M82.64,207.39l.2-.2.71-.29,26.2-26.1.34-.91-6.54-12.46Z"/><path d="M111,220.56l23.71-13.23L128,165.62a1.63,1.63,0,0,0-2.75-.89L82.64,207.39l23.58,13.17a4.94,4.94,0,0,0,4.8,0"/><path d="M134.52,207.22l-6.72-41.39a1.43,1.43,0,0,0-2.47-.91L82.9,207.31l23.32,13a4.91,4.91,0,0,0,4.76,0l23.54-13.13Z"/><path d="M111,220.17a4.94,4.94,0,0,1-4.8,0l-23.39-13-.19.2,23.58,13.17a4.94,4.94,0,0,0,4.8,0l23.71-13.23-.06-.36L111,220.17Z"/><path class="cls-1" d="M25.49,115.9A20.44,20.44,0,0,1,26.61,121a22.11,22.11,0,0,1-.37,6.44,1.54,1.54,0,0,1,0,.17,3.08,3.08,0,0,0-.43,0l-3.54.57c-1.22.2-2.45.39-3.66.6-.44.07-1,0-1.14.58,0,0-.06,0-.09,0l.06-3.57-.06-8.6.57-.1,2.79-.46,3.33-.51Z"/><path class="cls-1" d="M16.16,139.76c-.6-.52-1.22-1-1.8-1.55a22.32,22.32,0,0,1-6.47-10.5,17,17,0,0,1-.57-3.47,18.67,18.67,0,0,1-.06-2.48,29.26,29.26,0,0,1,1.11-6.43l0,0a.88.88,0,0,1,.18.25L10.45,121l5.81,17.36a1.48,1.48,0,0,0,.21.3Z"/><path class="cls-1" d="M25.49,115.9l-1.47.21-3.33.52-2.79.46-.57.1v-.37c0-.31,0-.61-.06-.92l-.06-5.83-.06-3.65c0-.76,0-1.51-.07-2.27,0-.4-.08-.81-.11-1.21,0-.23,0-.47,0-.7.29.56.57,1.12.87,1.68a10.7,10.7,0,0,0,1.9,2.24A25,25,0,0,1,25.49,115.9Z"/><path class="cls-1" d="M17.33,129.36s.08,0,.09,0c.17-.6.7-.51,1.14-.58,1.21-.21,2.44-.4,3.66-.6l3.54-.57a3.08,3.08,0,0,1,.43,0c-.23.78-.4,1.59-.68,2.35a26.2,26.2,0,0,1-1.11,2.55A17.34,17.34,0,0,1,22.15,136c-.69.82-1.44,1.57-2.21,2.32-.42.41-.91.75-1.37,1.12l-.12-.08-.43-.37-.45-1a14.28,14.28,0,0,1-.49-3.5v-.19l.07-.87.06-.88.12-3.17Z"/><path class="cls-1" d="M17.33,129.36l-.12,3.17-.06.89-.28.1c-.6-1.78-1.2-3.53-1.79-5.29-1-2.92-1.94-5.83-2.92-8.75-.78-2.35-1.58-4.7-2.37-7,0-.11-.15-.19-.22-.29L11.31,109a3.07,3.07,0,0,1,.17.31c.8,2.38,1.61,4.75,2.4,7.14q1.56,4.63,3.1,9.29a4.07,4.07,0,0,0,.17.38l.24-.28Z"/><path class="cls-1" d="M9.57,112.14c.07.1.18.18.22.29.79,2.35,1.59,4.7,2.37,7,1,2.92,1.94,5.83,2.92,8.75.59,1.76,1.19,3.51,1.8,5.29l.27-.1-.06.86-.06.19c-.09.95-.17,1.89-.29,2.83-.06.47-.18.94-.27,1.4a1.48,1.48,0,0,1-.21-.3L10.45,121l-1.86-5.51a.88.88,0,0,0-.18-.25C8.79,114.23,9.18,113.19,9.57,112.14Z"/><path class="cls-1" d="M17.39,125.79l-.24.28a4.07,4.07,0,0,1-.17-.38q-1.55-4.65-3.1-9.29c-.79-2.39-1.6-4.76-2.4-7.14a1.92,1.92,0,0,0-.18-.31l2.15-2.83a1,1,0,0,1,.2.27q.9,2.63,1.78,5.25c.55,1.63,1.09,3.27,1.64,4.9,0,.11.17.18.26.28v.37Z"/><path class="cls-1" d="M17.33,116.82c-.09-.1-.22-.17-.26-.28-.55-1.63-1.09-3.27-1.64-4.9s-1.18-3.5-1.78-5.25a1,1,0,0,0-.2-.27c.7-.69,1.38-1.39,2.11-2.05A3,3,0,0,0,16.75,102a1.06,1.06,0,0,1,.05-.19l.18.47c0,.23,0,.47,0,.7,0,.4.09.81.11,1.21,0,.76.05,1.51.07,2.27l.06,3.65.06,5.83C17.28,116.21,17.31,116.51,17.33,116.82Z"/><path class="cls-1" d="M16.47,138.7c.09-.46.21-.93.27-1.4.12-.94.2-1.88.29-2.83h0a14.28,14.28,0,0,0,.49,3.5,1,1,0,0,0-.18.24c-.26.73-.5,1.47-.76,2.19a1.31,1.31,0,0,1-.21.27l-.26-.91Z"/><path class="cls-1" d="M16.42,140.67a1.31,1.31,0,0,0,.21-.27c.26-.72.5-1.46.76-2.19a1,1,0,0,1,.18-.24l.45,1a1.83,1.83,0,0,0-.26.38l-.85,2.5c0,.11-.16.18-.24.26Z"/><path class="cls-1" d="M16.67,142.08c.08-.08.2-.16.24-.26l.85-2.5a1.83,1.83,0,0,1,.26-.38l.43.37a.76.76,0,0,0-.26.75l-.13.42a.91.91,0,0,0-.17.23c-.3.85-.58,1.71-.88,2.56,0,.11-.15.19-.22.29l-.12-1.48Z"/><path class="cls-1" d="M16.79,143.56c.07-.1.18-.18.22-.29.3-.85.58-1.71.88-2.56a.91.91,0,0,1,.17-.23l-.18,2c-.05.06-.12.11-.14.17-.2.57-.39,1.15-.6,1.72a1.63,1.63,0,0,1-.19.34c-.05-.08-.15-.15-.16-.23C16.78,144.16,16.79,143.86,16.79,143.56Z"/><path class="cls-1" d="M17,144.68a1.63,1.63,0,0,0,.19-.34c.21-.57.4-1.15.6-1.72,0-.06.09-.11.14-.17v1.29l-.44,1.11Z"/><path class="cls-1" d="M17.45,144.85l.44-1.11.09,1.31Z"/><path class="cls-1" d="M18.19,140.06a.76.76,0,0,1,.26-.75l.12.08Z"/><path class="cls-1" d="M17.08,134.48h0l.06-.19Z"/><path d="M312,154.28l-12.42-7.21a2.65,2.65,0,0,0-2.59,0l-12.55,7.21a2.69,2.69,0,0,0-1.38,2.27V171a2.72,2.72,0,0,0,1.4,2.28l3.31,1.88a5.34,5.34,0,0,0,2.87.78c2.34,0,3.68-1.42,3.68-3.89V157.78c0-.2-.1-.5-.3-.5h-1.58c-.2,0-.65.3-.65.5V172c0,1.09-1,2.19-2.85,1.26l-3.42-2a.38.38,0,0,1-.21-.33v-14.4c0-.13.16-.27.28-.34l12.51-7.2a.47.47,0,0,1,.4,0l12.36,7.2c.12.07.08.2.08.34V171c0,.14,0,.27-.07.34l-12.41,7.2a.33.33,0,0,1-.36,0l-3.18-1.9a.27.27,0,0,0-.3,0,8.08,8.08,0,0,1-1.88.85c-.21.07-.51.2.11.55l4.17,2.46a2.63,2.63,0,0,0,2.62,0l12.36-7.2a2.53,2.53,0,0,0,1.19-2.28v-14.4A2.53,2.53,0,0,0,312,154.28Zm-9.82,14.39c-3.3,0-4-.91-4.27-2.55,0-.18-.18-.39-.36-.39H296c-.2,0-.36.24-.36.44,0,2.1,1.14,4.65,6.6,4.65,4,0,6.22-1.54,6.22-4.26s-1.82-3.4-5.65-3.91-4.27-.77-4.27-1.67c0-.75.33-1.75,3.2-1.75,2.57,0,3.51.55,3.9,2.28a.36.36,0,0,0,.35.28h1.62a.36.36,0,0,0,.26-.11.37.37,0,0,0,.1-.28c-.25-3-2.23-4.36-6.23-4.36-3.56,0-5.68,1.5-5.68,4,0,2.73,2.11,3.48,5.53,3.82,4.08.4,4.4,1,4.4,1.8C306,168.08,304.84,168.67,302.21,168.67Z"/><path d="M195.15,102.66a2.51,2.51,0,0,0-.27-5h-.09a2.51,2.51,0,0,0-2.41,2.59,2.54,2.54,0,0,0,.72,1.65,16,16,0,0,1-7.32,7,12,12,0,0,1-7.27,1.38,6.17,6.17,0,0,1-4.55-2.63,6.55,6.55,0,0,1-.35-6.91,10.4,10.4,0,0,1,3-3.57,22.68,22.68,0,0,1-.58-2.27c-6.47,4.68-5.8,11-3.84,14,1.47,2.23,4.46,3.61,7.76,3.61a11.08,11.08,0,0,0,2.68-.31,17.11,17.11,0,0,0,12.49-9.54ZM203,97.13A18.13,18.13,0,0,0,188.9,91h-.71A2.46,2.46,0,0,0,186,89.63h-.09a2.5,2.5,0,0,0,.09,5h.09a2.53,2.53,0,0,0,2.19-1.52h.8a17,17,0,0,1,9.5,2.9,11.93,11.93,0,0,1,4.73,5.71,6.18,6.18,0,0,1-.09,5.26,6.55,6.55,0,0,1-6.11,3.66,11.43,11.43,0,0,1-4.37-.94,25.25,25.25,0,0,1-2,1.61,13.8,13.8,0,0,0,5.75,1.38,9.68,9.68,0,0,0,8.66-4.73c1.29-2.58,1.2-7-2.14-10.83Zm-22.66,6.28a2.5,2.5,0,0,0,2.5,2.41h.09a2.5,2.5,0,0,0-.09-5h-.09a.83.83,0,0,0-.31,0,16.3,16.3,0,0,1-2.32-9.9,12,12,0,0,1,2.63-6.91,7.75,7.75,0,0,1,5.48-2.5c4.73-.09,6.74,5.8,6.87,8.16.58.14,1.56.45,2.23.67-.53-7.22-5-11-9.27-11-4,0-7.72,2.9-9.19,7.18a18.24,18.24,0,0,0,1.78,15.52,2,2,0,0,0-.31,1.29Z"/><path d="M207.15,175.79a14,14,0,0,0-6.16,1.43,12.71,12.71,0,0,1-1.38-3.18,9,9,0,0,1-.12-2.69,22,22,0,0,1,.81-2.89c0-.12-.15-.7-1.51-.72s-2.55.27-2.69.63a16.52,16.52,0,0,0-.57,2c-.24,1.25-2.73,5.67-4.15,8a8.08,8.08,0,0,1-.95-2.33,9.06,9.06,0,0,1-.12-2.69,22,22,0,0,1,.81-2.89c0-.12-.14-.71-1.51-.72s-2.55.27-2.68.62-.28,1.21-.57,2-3.6,8.2-4.47,10.13c-.43,1-.82,1.77-1.1,2.3s0,0,0,.09l-.37.7v0c-.19.33-.38.65-.48.65a4.49,4.49,0,0,1,0-2.11c.49-2.57,1.69-6.56,1.67-6.71s.23-.77-.77-1.13a1.2,1.2,0,0,0-1.39.24c-.08,0-.15.21-.15.21s1.08-4.5-2.06-4.5c-2,0-4.67,2.14-6,4.09l-4.57,2.5-2.21,1.21-.14-.16c-3.8-4-10.83-6.92-10.53-12.37.1-2,.79-7.2,13.49-13.52,10.4-5.18,18.73-3.76,20.17-.59,2.06,4.51-4.45,12.9-15.26,14.11-4.11.47-6.28-1.13-6.82-1.72s-.65-.65-.87-.53-.13.74,0,1.07a6.43,6.43,0,0,0,3.91,3.07c2,.65,6.81,1,12.65-1.25,6.55-2.54,11.66-9.57,10.16-15.46s-11.46-7.95-20.85-4.62c-5.59,2-11.64,5.1-16,9.18-5.18,4.83-6,9.05-5.66,10.81,1.21,6.25,9.83,10.33,13.28,13.34l-.47.27c-1.73.85-8.3,4.29-9.95,7.93-1.86,4.11.29,7.08,1.73,7.47,4.43,1.24,9-1,11.43-4.63s2.15-8.39,1-10.56l0-.08,1.36-.79c.87-.52,1.74-1,2.49-1.41a16.68,16.68,0,0,0-.89,4.51c-.18,2.34.77,5.37,2,6.56a2.22,2.22,0,0,0,1.63.53c1.46,0,2.12-1.2,2.85-2.65.91-1.77,1.7-3.81,1.7-3.81s-1,5.54,1.73,5.54c1,0,2-1.29,2.44-2v0a1,1,0,0,0,.08-.14,2.13,2.13,0,0,0,.16-.25v0c.4-.69,1.29-2.27,2.62-4.88,1.71-3.38,3.36-7.6,3.36-7.6a24.41,24.41,0,0,0,.65,2.74,25.57,25.57,0,0,0,1.42,3.18c-.4.56-.64.88-.64.88h0c-.32.43-.68.88-1.05,1.33a37.7,37.7,0,0,0-3.19,4,1.1,1.1,0,0,0,.29,1.46,2.67,2.67,0,0,0,1.68.27,7.24,7.24,0,0,0,2.49-.58,8.24,8.24,0,0,0,2.15-1.12,4.8,4.8,0,0,0,2.06-4.24,8.6,8.6,0,0,0-.78-3c.12-.17.24-.34.36-.53a56.14,56.14,0,0,0,3.72-6.44,24.41,24.41,0,0,0,.65,2.74A18.17,18.17,0,0,0,198.3,179a11.87,11.87,0,0,0-3.63,4.69c-.78,2.26-.17,3.28,1,3.52a3.59,3.59,0,0,0,1.82-.37,8.17,8.17,0,0,0,2.3-1.19c1.33-1,2.6-2.35,2.54-4.19a8.27,8.27,0,0,0-.57-2.49,12.94,12.94,0,0,1,6.58-.75c5.91.69,7.08,4.38,6.86,5.92a4,4,0,0,1-1.88,2.66c-.41.25-.54.34-.5.53s.24.26.6.21a4.6,4.6,0,0,0,3.21-4.1c.16-3.66-3.31-7.64-9.46-7.6Zm-45.57,15.37c-2,2.13-4.71,2.94-5.87,2.25s-.77-3.87,1.63-6.15a31.68,31.68,0,0,1,4.61-3.44l1.21-.73.13-.08.3-.18a8.5,8.5,0,0,1-2,8.33Zm14.27-9.71c-.68,1.66-2.11,5.92-3,5.68s-1.2-3.43-.15-6.61a14.68,14.68,0,0,1,2.33-4.27c1.07-1.19,2.24-1.59,2.53-1.1S176.28,180.41,175.85,181.45Zm11.78,5.63c-.29.14-.56.25-.68.17s.12-.25.12-.25,1.48-1.58,2.06-2.31c.33-.43.73-.92,1.16-1.48v.16c0,1.92-1.83,3.19-2.66,3.71Zm9.09-2.07c-.22-.16-.19-.65.53-2.19a8,8,0,0,1,2-2.61,3.21,3.21,0,0,1,.19,1.14A3.75,3.75,0,0,1,196.72,185Z"/><path d="M299.48,129.84a.84.84,0,0,1-.85.87.87.87,0,0,1,0-1.74A.85.85,0,0,1,299.48,129.84Z"/><path d="M309,128.78c0,1.21-.94,2-2.39,2a2.11,2.11,0,0,1-2.37-1.89l0-.31h1.42l0,.26c0,.37.43.58,1,.58s.87-.24.87-.53c0-.12,0-.36-.8-.53l-.7-.17c-1.13-.27-1.66-.87-1.66-1.81,0-1.14.91-1.91,2.27-1.91a2,2,0,0,1,2.24,1.84l0,.33h-1.4l0-.26c-.07-.36-.38-.56-.84-.56s-.82.12-.82.51c0,.12,0,.29.77.48l.58.15C308.05,127.16,309,127.55,309,128.78Z"/><path d="M303.78,124.6v4.16a1.87,1.87,0,0,1-2,2,1.83,1.83,0,0,1-2-1.86h.29v-.29h1.14v.29c0,.29.19.45.5.45s.56-.07.56-.62V124.6Z"/><polygon points="248.29 146.66 248.04 146.83 247.8 147.02 236.81 132.33 221.45 109.86 221.38 132.45 219.25 132.45 219.25 106.68 221.64 106.68 248.29 146.66"/><polygon points="299.09 106.68 299.09 108.63 290.25 108.63 290.25 132.45 288.1 132.45 288.1 108.63 279.31 108.63 279.31 106.68 299.09 106.68"/><polygon points="270 119.21 279.55 132.45 276.94 132.45 268.6 120.91 260.25 132.45 240.29 132.45 240.29 106.68 257.71 106.68 257.71 108.63 242.42 108.63 242.42 118.1 256.79 118.1 256.79 120.03 242.42 120.03 242.42 130.52 257.88 130.52 257.88 132.19 267.3 119.21 258.31 106.68 260.85 106.68 260.95 106.8 268.6 117.55 276.45 106.8 287.47 92.74 287.71 92.93 287.95 93.1 270 119.21"/><path class="cls-1" d="M193.88,0Q183.2,0,180.52,10.62q4-5.31,9.35-4c2,.5,3.49,2,5.09,3.59,2.62,2.64,5.66,5.7,12.28,5.7q10.68,0,13.35-10.62-4,5.31-9.35,4c-2-.5-3.48-2-5.09-3.59C203.53,3.06,200.5,0,193.88,0ZM180.52,15.93q-10.68,0-13.36,10.62,4-5.31,9.35-4c2,.51,3.49,2,5.1,3.59,2.62,2.65,5.65,5.71,12.27,5.71q10.68,0,13.36-10.63-4,5.31-9.35,4c-2-.51-3.49-2-5.1-3.6C190.17,19,187.14,15.93,180.52,15.93Z"/><path d="M324.69,36.52H281.44a1.08,1.08,0,0,0-1.08,1.08V80.85a1.08,1.08,0,0,0,1.08,1.08h43.25a1.08,1.08,0,0,0,1.09-1.08V37.6A1.08,1.08,0,0,0,324.69,36.52Zm-17.3,24.27H302V77.61h-4.33V60.79h-5.41V57.06h15.14Zm1.22,15.86v-4.5A10.07,10.07,0,0,0,314,74c2.94,0,2.83-1.92,2.83-2.19,0-2.79-8.35-2.79-8.35-9,0-8.42,12.17-5.1,12.17-5.1l-.15,4a8.94,8.94,0,0,0-4.35-1.36c-2.3,0-3.14,1.09-3.14,2.26,0,3,8.43,2.72,8.43,8.8C321.45,80.8,308.61,76.65,308.61,76.65Z"/><path d="M135,128.28l-10.57-10.56a1.55,1.55,0,0,0-2.2,0l-2.2,2.19,2.79,2.78a1.85,1.85,0,0,1,2.34,2.36l2.68,2.68a1.86,1.86,0,0,1,1.92,3.07,1.86,1.86,0,0,1-3-2l-2.5-2.5v6.58a1.85,1.85,0,1,1-2.13,3,1.84,1.84,0,0,1,.61-3v-6.65a1.84,1.84,0,0,1-1-2.43L119,121l-7.25,7.24a1.56,1.56,0,0,0,0,2.21L122.27,141a1.55,1.55,0,0,0,2.2,0L135,130.49a1.56,1.56,0,0,0,0-2.21Z"/><path d="M12.92,158.61c-1.28,1.28-1,2.75,1.28,6.08a30.83,30.83,0,0,1,3,5.95,24.17,24.17,0,0,0,2.24,4.86c1.27,1.79,1.27,2.17.44,5.43a17.62,17.62,0,0,0-.44,6.21c.38,2.68,2.55,6.58,3.9,7,1.15.38,2.81-1.66,2.87-3.52,0-1.59.07-1.66.77-.51,1.22,2,5.05,6.2,5.37,5.88a12.43,12.43,0,0,0-1.92-3.64c-1.15-1.92-2.49-4.41-3-5.57-.7-1.91-1-2-1.79-1.15A7.07,7.07,0,0,0,24.31,189c-.52,3.07-1.67,3.45-2.56.83a19.47,19.47,0,0,1,0-10.17c.64-2.11.57-2.68-.52-4.29a21.19,21.19,0,0,1-2.36-5.11,23.37,23.37,0,0,0-3-5.89c-2.49-3.51-2.49-4.79.13-4.28a11.51,11.51,0,0,1,3.77,1.66A7.41,7.41,0,0,0,23.41,163c3.07,0,8.44,3,12.34,6.91,3,3,4.54,5.43,7.8,12,3.84,7.8,4.16,8.25,6.53,9,2.81,1,8.69,4.54,8.69,5.31,0,.25-1.47.63-3.26.76-4.79.51-5.24,1.41-2.11,4.22a42.26,42.26,0,0,0,6.21,4.35l3.58,2-1.66-2.11a22.15,22.15,0,0,0-4.48-3.9,8.84,8.84,0,0,1-2.75-2.24c0-.26,1.08-.71,2.43-.9,3.58-.64,4.6-1,4.6-1.6,0-1-6.46-5.82-9.53-7.16-2.62-1.22-2.94-1.73-6.33-8.7-3-6.39-4.22-8.18-8-12-4.93-4.92-8.32-7-12.67-7.68a13.05,13.05,0,0,1-4.41-1.66c-2.11-1.6-6.4-2.17-7.42-1.08Z"/><path d="M276.93,204v6.18h10.29v2.08h8.22v-2.08h18.43V197.86H276.93V204Zm10.29,0v4.11h-2.08V202h-2v6.14h-4.22v-8.22h8.3Zm10.27,0,0,4.11-4,0v2.08h-4.22V199.93h8.29l0,4.12Zm14.38,0v4.11H309.8V202h-2.08v6.18l-2.07-.05V202h-2v6.14h-4.14v-8.22h12.36V204Zm-18.43,0v2h1.92V202h-1.92v2Z"/><path d="M19,9.17H13.4L11,21.34h2.86l.6-3.15h2.7a5.32,5.32,0,0,0,5.41-5.56c0-2.11-1.2-3.31-3.6-3.46Zm-2.1,6.76h-1.8l.75-4.51h2c1,0,1.81.46,1.81,1.36C19.42,15.33,18.21,15.78,16.86,15.93ZM29,9.17h-2.7L26.93,6H24.07l-2.4,12.18h2.86l1.35-6.77h2.25c1.06,0,1.06.46.9,1.21L28,18.19h3L32,12c.3-1.51-.6-2.71-3-2.86Zm10.07,0H33.54l-2.4,12.17H34l.61-3.15h2.7a5.32,5.32,0,0,0,5.41-5.56c0-2.11-1.2-3.31-3.61-3.46ZM37,15.93H35.2L36,11.42H37.9c1.05,0,1.8.46,1.8,1.36C39.55,15.33,38.35,15.78,37,15.93Z"/><path d="M277.53,5.73c-2.31,2.31-4.25,4.19-4.34,4.19a33.74,33.74,0,0,1-2.8-2.07l-2.63-2.06-2.15,1.07V17.57l2.15,1.07,2.43-1.89c1.35-1.06,2.59-2,2.75-2.12s.62.09,4.58,4l4.24,4.24,2.6-1.05,2.6-1V3.61l-2-.79c-1.08-.45-2.26-.9-2.61-1l-.63-.25-4.19,4.2Zm4.15,6.49c0,2.35,0,4.28-.09,4.28a58.32,58.32,0,0,1-5.37-4.33c0-.17,5.17-4.22,5.35-4.22a38.18,38.18,0,0,1,.11,4.26Zm-12.16-1.53,1.53,1.53-1.53,1.53a19,19,0,0,1-1.64,1.53,17.87,17.87,0,0,1-.12-3.06,17.78,17.78,0,0,1,.12-3.06,17.28,17.28,0,0,1,1.64,1.53Z"/><polygon points="137.61 7.16 137.61 17.96 135.42 17.96 130.23 10.39 130.23 17.96 128.01 17.96 128.01 7.16 130.56 7.16 135.42 14.54 135.42 7.16 137.61 7.16"/><polygon points="126.86 17.96 124.53 17.96 123.51 15.32 118.1 18.13 119.3 15.25 122.84 13.59 121.45 9.95 118.1 18.13 116.39 16.65 120.36 7.16 122.64 7.16 126.86 17.96"/><path d="M141.85,7.16h-2.29V18h2.29Z"/><polygon points="152.56 9.13 149.01 10.95 149.01 17.96 146.7 17.96 146.7 9.84 148.14 9.13 143.18 9.13 143.18 7.16 151.4 7.16 151.58 7.45 152.56 9.13"/><polygon points="163.33 7.16 159.34 13.85 159.34 17.96 157.06 17.96 157.06 13.85 153.09 7.16 155.59 7.16 158.28 11.75 160.91 7.16 163.33 7.16"/><path d="M115.57,14.76a3.05,3.05,0,0,1-.66,2,4.32,4.32,0,0,1-3.42,1.39c-2.46,0-4.17-1.19-4.57-3.26h2.38a2.05,2.05,0,0,0,2.17,1.4,2,2,0,0,0,2.22-1.88.34.34,0,0,1,.13.09.71.71,0,0,0-.13-.12v0A5.69,5.69,0,0,0,112,13.7l-2-.44c-1.58-.36-2.8-1.18-2.8-2.95a3.14,3.14,0,0,1,.64-1.91A4.09,4.09,0,0,1,111.18,7c2.51,0,3.95,1.31,4.3,3.13h-2.26a2,2,0,0,0-2-1.29,1.89,1.89,0,0,0-2.1,1.82,5.91,5.91,0,0,0,1.59.64l2,.45C114.48,12.12,115.57,13.14,115.57,14.76Z"/><path d="M109,10.55c.05,0,.09.07.14.09h0A.31.31,0,0,1,109,10.55Z"/><path d="M113.82,14.48a.34.34,0,0,0-.13-.09v0A.71.71,0,0,1,113.82,14.48Z"/><path d="M113.82,14.48a.34.34,0,0,0-.13-.09v0A.71.71,0,0,1,113.82,14.48Z"/><path d="M109.1,10.64h0a.31.31,0,0,1-.11-.09C109,10.57,109.05,10.62,109.1,10.64Z"/></g></g></svg>